<svg width="65" height="61" viewBox="0 0 65 61" fill="none" xmlns="http://www.w3.org/2000/svg">
<g id="Vector">
<path d="M26.5446 27.9954C26.4505 28.0004 26.3564 27.9849 26.2689 27.9499C26.1813 27.915 26.1025 27.8613 26.0378 27.7928C26.0378 27.7928 24.2132 26.1217 22.3886 26.5268C22.1887 26.5627 21.9828 26.5188 21.815 26.4046C21.6472 26.2905 21.5308 26.1151 21.491 25.9162C21.4512 25.7173 21.4911 25.5107 21.602 25.3408C21.713 25.1709 21.8862 25.0513 22.0845 25.0076C24.6693 24.4506 26.9501 26.5774 27.0515 26.6787C27.1925 26.817 27.276 27.0034 27.2854 27.2005C27.2948 27.3977 27.2294 27.5911 27.1022 27.7422C26.9566 27.8961 26.7565 27.987 26.5446 27.9954ZM35.5664 40.858C35.3664 40.8529 35.1759 40.7712 35.0345 40.6298C34.893 40.4885 34.8112 40.2982 34.8061 40.0984C34.8061 39.3894 33.7418 38.7311 32.576 38.7311C31.4103 38.7311 30.3459 39.3894 30.3459 40.0984C30.3459 40.2998 30.2658 40.4931 30.1233 40.6355C29.9807 40.778 29.7873 40.858 29.5857 40.858C29.384 40.858 29.1907 40.778 29.0481 40.6355C28.9055 40.4931 28.8254 40.2998 28.8254 40.0984C28.8254 38.4779 30.4473 37.2119 32.576 37.2119C34.7047 37.2119 36.3266 38.4779 36.3266 40.0984C36.3285 40.1987 36.3101 40.2983 36.2725 40.3913C36.235 40.4843 36.1791 40.5687 36.1081 40.6396C36.0371 40.7106 35.9526 40.7664 35.8595 40.804C35.7664 40.8415 35.6667 40.8598 35.5664 40.858Z" fill="#A680DB"/>
<path d="M32.576 38.7817C30.65 38.7817 26.7474 36.7055 26.7474 34.0216C26.7474 31.287 29.8391 29.2614 32.576 29.2614C35.313 29.2614 38.4047 31.287 38.4047 34.0216C38.4047 36.7055 34.5527 38.7817 32.576 38.7817ZM32.576 30.7299C30.3459 30.7299 28.2679 32.2998 28.2679 33.9709C28.2679 35.5914 31.2076 37.2119 32.576 37.2119C33.9445 37.2119 36.8842 35.5914 36.8842 33.9709C36.8842 32.3504 34.8061 30.7299 32.576 30.7299ZM38.6581 27.9954C38.4581 27.9902 38.2677 27.9086 38.1262 27.7672C37.9847 27.6259 37.903 27.4356 37.8978 27.2358C37.9062 27.0241 37.9972 26.8242 38.1512 26.6787C38.2526 26.5774 40.5841 24.5012 43.1183 25.0076C43.2148 25.0308 43.3059 25.0728 43.3862 25.1311C43.4665 25.1895 43.5345 25.2631 43.5863 25.3478C43.6381 25.4325 43.6726 25.5265 43.688 25.6246C43.7033 25.7226 43.6992 25.8227 43.6758 25.9191C43.6585 26.0136 43.6221 26.1036 43.5687 26.1835C43.5153 26.2634 43.4462 26.3315 43.3655 26.3837C43.2847 26.4359 43.1942 26.471 43.0994 26.4869C43.0046 26.5028 42.9075 26.4991 42.8142 26.4762C41.0402 26.1217 39.2156 27.7422 39.1649 27.7422C39.1068 27.8217 39.0304 27.8862 38.9422 27.9302C38.8541 27.9742 38.7566 27.9966 38.6581 27.9954Z" fill="#A680DB"/>
<path d="M51.0756 16.3988C53.8125 11.9931 54.3701 4.2451 52.4441 2.06757C51.8189 1.41668 50.9643 1.03515 50.0619 1.00413C47.2743 0.953485 43.0169 2.67525 39.9759 5.35919C37.7631 4.26547 35.2837 3.82622 32.8294 4.09318H32.3226C29.8676 3.80085 27.3809 4.24137 25.1762 5.35919C22.1352 2.67525 17.9284 0.902845 15.0901 1.00413C14.642 1.01289 14.2002 1.11155 13.791 1.29423C13.3818 1.47692 13.0135 1.7399 12.708 2.06757C10.8327 4.2451 11.3395 12.0437 14.0764 16.3988C11.5422 20.5513 7.63958 30.0716 8.80531 36.4523C10.1231 43.8964 16.6613 49.7707 26.6967 52.6572C30.5542 53.7713 34.6486 53.7713 38.506 52.6572C48.5414 49.8213 55.029 43.8964 56.3974 36.4523C57.5125 30.0716 53.6098 20.5513 51.0756 16.3988ZM49.9606 2.52333C50.2031 2.51431 50.4449 2.55454 50.6714 2.64158C50.8979 2.72862 51.1044 2.86067 51.2784 3.02973C52.5455 4.34638 52.3934 10.8283 50.1633 14.9808C48.845 13.0269 47.3522 11.1963 45.7031 9.51169C46.1086 8.6508 47.0209 7.03031 48.7442 6.52391C48.9391 6.46347 49.102 6.32815 49.197 6.14771C49.2921 5.96727 49.3115 5.75649 49.251 5.56175C49.1905 5.367 49.0551 5.20424 48.8745 5.10927C48.6939 5.01431 48.4829 4.99491 48.288 5.05534C46.3113 5.66303 45.1456 7.28351 44.5374 8.3976C43.5846 7.53798 42.549 6.77465 41.4457 6.11879C44.3347 3.7387 47.9332 2.47269 49.9606 2.52333ZM13.9244 3.02973C14.2887 2.70863 14.7564 2.52892 15.2422 2.52333C17.2695 2.47269 20.8681 3.7387 23.8077 6.16943C22.7045 6.82529 21.6688 7.58862 20.716 8.44824C20.1078 7.28351 18.9421 5.66303 16.9654 5.10598C16.8689 5.07606 16.7674 5.06542 16.6668 5.07467C16.5662 5.08393 16.4684 5.11289 16.3789 5.15991C16.2895 5.20694 16.2102 5.2711 16.1456 5.34873C16.081 5.42637 16.0324 5.51596 16.0024 5.61239C15.9725 5.70881 15.9618 5.81019 15.9711 5.91073C15.9803 6.01127 16.0093 6.109 16.0564 6.19835C16.1035 6.28769 16.1677 6.3669 16.2454 6.43145C16.3231 6.496 16.4127 6.54463 16.5093 6.57455C18.2325 7.08095 19.1448 8.70144 19.5503 9.56233C17.8589 11.2038 16.3468 13.0202 15.0394 14.9808C12.8093 10.8283 12.6573 4.34638 13.9244 3.02973ZM15.6476 16.8039C18.8407 11.8918 23.7064 6.32135 29.6364 5.61239C30.4634 5.56168 31.2928 5.56168 32.1199 5.61239C32.4218 5.66338 32.7302 5.66338 33.0322 5.61239C33.8569 5.51068 34.691 5.51068 35.5157 5.61239C41.4457 6.27071 46.362 11.8918 49.5551 16.8039C52.1831 21.1599 53.971 25.9693 54.8262 30.9831C44.9936 33.5152 41.8005 31.4895 38.9115 29.7171C37.1883 28.6537 35.465 27.5396 32.576 27.5396C29.687 27.5396 27.9638 28.6537 26.2405 29.7171C23.4023 31.4895 20.1585 33.5152 10.3258 30.9831C11.2216 25.9726 13.025 21.1674 15.6476 16.8039ZM54.8769 36.1991C53.6605 43.0355 47.5278 48.5047 38.1006 51.1886C34.5045 52.2012 30.6983 52.2012 27.1022 51.1886C17.675 48.5047 11.5422 43.0355 10.3258 36.1991C10.1147 34.9781 10.0806 33.7331 10.2245 32.5024C12.9026 33.2355 15.6594 33.6436 18.4352 33.7177C22.794 33.7177 25.0241 32.2998 27.1022 31.0338C28.7747 30.021 30.1939 29.1095 32.6267 29.1095C35.0595 29.1095 36.4787 30.021 38.1512 31.0338C41.243 32.9581 44.7401 35.1356 55.029 32.553C55.1291 33.77 55.0781 34.9947 54.8769 36.1991Z" fill="#A680DB"/>
<path d="M41.6991 20.1461C41.2138 19.6402 40.6264 19.2432 39.9759 18.9814C39.325 18.7867 38.6267 18.8225 37.9992 19.0827C37.6892 19.2086 37.4106 19.4007 37.183 19.6457C36.9553 19.8906 36.7841 20.1825 36.6814 20.5006C36.5909 20.816 36.5712 21.1475 36.6238 21.4714C36.6764 21.7953 36.7999 22.1036 36.9855 22.3743C37.3649 22.9265 37.9178 23.3364 38.5567 23.539C38.9027 23.6391 39.2609 23.6903 39.6211 23.691C39.9648 23.6935 40.3069 23.6422 40.6348 23.539C41.1002 23.455 41.5264 23.2243 41.8512 22.8807C42.1846 22.4937 42.355 21.9927 42.3266 21.4828C42.2983 20.973 42.0734 20.4939 41.6991 20.1461ZM40.2065 22.1272C39.8111 22.2198 39.3977 22.2001 39.0129 22.0705C38.7014 21.9806 38.432 21.7832 38.2526 21.5134C38.1862 21.4287 38.1421 21.3287 38.1244 21.2225C38.1067 21.1163 38.1159 21.0074 38.1512 20.9057C38.3221 20.3487 38.9764 20.2783 39.4994 20.3912C39.7224 20.4221 39.9356 20.5026 40.1233 20.6267C40.311 20.7508 40.4684 20.9154 40.5841 21.1083C40.633 21.1988 40.662 21.2986 40.6693 21.4012C40.6765 21.5037 40.6617 21.6067 40.626 21.7031C40.5903 21.7995 40.5344 21.8872 40.462 21.9604C40.3897 22.0335 40.3026 22.0904 40.2065 22.1272ZM23.3009 22.8807C23.6256 23.2243 24.0519 23.455 24.5173 23.539C24.8452 23.6422 25.1872 23.6935 25.531 23.691C25.8911 23.6903 26.2494 23.6391 26.5953 23.539C27.2342 23.3364 27.7872 22.9265 28.1665 22.3743C28.3522 22.1036 28.4757 21.7953 28.5283 21.4714C28.5808 21.1475 28.5612 20.816 28.4706 20.5006C28.3679 20.1825 28.1967 19.8906 27.9691 19.6457C27.7414 19.4007 27.4628 19.2086 27.1529 19.0827C26.5253 18.8225 25.8271 18.7867 25.1762 18.9814C24.5256 19.2432 23.9382 19.6402 23.4529 20.1461C23.0787 20.4939 22.8538 20.973 22.8254 21.4828C22.7971 21.9927 22.9675 22.4937 23.3009 22.8807ZM24.568 21.1083C24.6836 20.9154 24.8411 20.7508 25.0288 20.6267C25.2165 20.5026 25.4297 20.4221 25.6526 20.3912C26.1757 20.2783 26.83 20.3487 27.0008 20.9057C27.0362 21.0074 27.0454 21.1163 27.0277 21.2225C27.01 21.3287 26.9659 21.4287 26.8994 21.5134C26.7201 21.7832 26.4506 21.9806 26.1392 22.0705C25.7544 22.2001 25.341 22.2198 24.9456 22.1272C24.8495 22.0904 24.7624 22.0335 24.69 21.9604C24.6177 21.8872 24.5618 21.7995 24.526 21.7031C24.4903 21.6067 24.4756 21.5037 24.4828 21.4012C24.49 21.2986 24.5191 21.1988 24.568 21.1083Z" fill="#A680DB"/>
<path d="M49.9606 56.202C50.3525 56.202 50.6702 55.8846 50.6702 55.493C50.6702 55.1015 50.3525 54.7841 49.9606 54.7841C49.5687 54.7841 49.251 55.1015 49.251 55.493C49.251 55.8846 49.5687 56.202 49.9606 56.202Z" fill="#A680DB"/>
<path d="M46.7168 38.0728C47.1087 38.0728 47.4264 37.7554 47.4264 37.3638C47.4264 36.9723 47.1087 36.6549 46.7168 36.6549C46.3249 36.6549 46.0072 36.9723 46.0072 37.3638C46.0072 37.7554 46.3249 38.0728 46.7168 38.0728Z" fill="#A680DB"/>
<path d="M28.7241 47.897C29.1159 47.897 29.4336 47.5796 29.4336 47.188C29.4336 46.7965 29.1159 46.4791 28.7241 46.4791C28.3322 46.4791 28.0145 46.7965 28.0145 47.188C28.0145 47.5796 28.3322 47.897 28.7241 47.897Z" fill="#A680DB"/>
<path d="M59.8946 17.1077C60.2865 17.1077 60.6042 16.7903 60.6042 16.3988C60.6042 16.0072 60.2865 15.6898 59.8946 15.6898C59.5027 15.6898 59.185 16.0072 59.185 16.3988C59.185 16.7903 59.5027 17.1077 59.8946 17.1077Z" fill="#A680DB"/>
<path d="M55.6879 50.3784C56.2757 50.3784 56.7522 49.9022 56.7522 49.3149C56.7522 48.7276 56.2757 48.2515 55.6879 48.2515C55.1 48.2515 54.6235 48.7276 54.6235 49.3149C54.6235 49.9022 55.1 50.3784 55.6879 50.3784Z" fill="#A680DB"/>
<path d="M16.712 55.9994C17.3838 55.9994 17.9284 55.4553 17.9284 54.7841C17.9284 54.1128 17.3838 53.5687 16.712 53.5687C16.0402 53.5687 15.4956 54.1128 15.4956 54.7841C15.4956 55.4553 16.0402 55.9994 16.712 55.9994Z" fill="#A680DB"/>
<path d="M35.2116 60C35.6035 60 35.9212 59.6826 35.9212 59.291C35.9212 58.8995 35.6035 58.5821 35.2116 58.5821C34.8197 58.5821 34.502 58.8995 34.502 59.291C34.502 59.6826 34.8197 60 35.2116 60Z" fill="#A680DB"/>
<path d="M19.0941 38.2753C19.598 38.2753 20.0064 37.8672 20.0064 37.3638C20.0064 36.8604 19.598 36.4523 19.0941 36.4523C18.5903 36.4523 18.1818 36.8604 18.1818 37.3638C18.1818 37.8672 18.5903 38.2753 19.0941 38.2753Z" fill="#A680DB"/>
<path d="M63.2904 37.0093C63.6823 37.0093 64 36.6919 64 36.3004C64 35.9088 63.6823 35.5914 63.2904 35.5914C62.8985 35.5914 62.5808 35.9088 62.5808 36.3004C62.5808 36.6919 62.8985 37.0093 63.2904 37.0093Z" fill="#A680DB"/>
<path d="M40.0772 43.4406C40.4691 43.4406 40.7868 43.1232 40.7868 42.7317C40.7868 42.3401 40.4691 42.0227 40.0772 42.0227C39.6853 42.0227 39.3677 42.3401 39.3677 42.7317C39.3677 43.1232 39.6853 43.4406 40.0772 43.4406Z" fill="#A680DB"/>
<path d="M3.58488 21.007C3.97676 21.007 4.29445 20.6896 4.29445 20.2981C4.29445 19.9065 3.97676 19.5891 3.58488 19.5891C3.19299 19.5891 2.8753 19.9065 2.8753 20.2981C2.8753 20.6896 3.19299 21.007 3.58488 21.007Z" fill="#A680DB"/>
<path d="M1.96299 38.7311C2.49484 38.7311 2.92599 38.3003 2.92599 37.7689C2.92599 37.2375 2.49484 36.8068 1.96299 36.8068C1.43115 36.8068 1 37.2375 1 37.7689C1 38.3003 1.43115 38.7311 1.96299 38.7311Z" fill="#A680DB"/>
<path d="M5.96803 49.636C6.35096 49.636 6.66138 49.3258 6.66138 48.9432C6.66138 48.5606 6.35096 48.2505 5.96803 48.2505C5.5851 48.2505 5.27467 48.5606 5.27467 48.9432C5.27467 49.3258 5.5851 49.636 5.96803 49.636Z" fill="#A680DB"/>
<path d="M32.576 37.2119C30.4473 37.2119 28.8254 38.4779 28.8254 40.0984C28.8254 40.2998 28.9055 40.4931 29.0481 40.6355C29.1907 40.778 29.384 40.858 29.5857 40.858C29.7873 40.858 29.9807 40.778 30.1233 40.6355C30.2658 40.4931 30.3459 40.2998 30.3459 40.0984C30.3459 39.3894 31.4103 38.7311 32.576 38.7311C33.7418 38.7311 34.8061 39.3894 34.8061 40.0984C34.8112 40.2982 34.893 40.4885 35.0345 40.6298C35.1759 40.7712 35.3664 40.8529 35.5664 40.858C35.6667 40.8598 35.7664 40.8415 35.8595 40.804C35.9526 40.7664 36.0371 40.7106 36.1081 40.6396C36.1791 40.5687 36.235 40.4843 36.2725 40.3913C36.3101 40.2983 36.3285 40.1987 36.3266 40.0984C36.3266 38.4779 34.7047 37.2119 32.576 37.2119ZM32.576 37.2119C31.2076 37.2119 28.2679 35.5914 28.2679 33.9709C28.2679 32.2998 30.3459 30.7299 32.576 30.7299C34.8061 30.7299 36.8842 32.3504 36.8842 33.9709C36.8842 35.5914 33.9445 37.2119 32.576 37.2119ZM26.5446 27.9954C26.4505 28.0004 26.3564 27.9849 26.2689 27.9499C26.1813 27.915 26.1025 27.8613 26.0378 27.7928C26.0378 27.7928 24.2132 26.1217 22.3886 26.5268C22.1887 26.5627 21.9828 26.5188 21.815 26.4046C21.6472 26.2905 21.5308 26.1151 21.491 25.9162C21.4512 25.7173 21.4911 25.5107 21.602 25.3408C21.713 25.1709 21.8862 25.0513 22.0845 25.0076C24.6693 24.4506 26.9501 26.5774 27.0515 26.6787C27.1925 26.817 27.276 27.0034 27.2854 27.2005C27.2948 27.3977 27.2294 27.5911 27.1022 27.7422C26.9566 27.8961 26.7565 27.987 26.5446 27.9954ZM32.576 38.7817C30.65 38.7817 26.7474 36.7055 26.7474 34.0216C26.7474 31.287 29.8391 29.2614 32.576 29.2614C35.313 29.2614 38.4047 31.287 38.4047 34.0216C38.4047 36.7055 34.5527 38.7817 32.576 38.7817ZM38.6581 27.9954C38.4581 27.9902 38.2677 27.9086 38.1262 27.7672C37.9847 27.6259 37.903 27.4356 37.8978 27.2358C37.9062 27.0241 37.9972 26.8242 38.1512 26.6787C38.2526 26.5774 40.5841 24.5012 43.1183 25.0076C43.2148 25.0308 43.3059 25.0728 43.3862 25.1311C43.4665 25.1895 43.5345 25.2631 43.5863 25.3478C43.638 25.4325 43.6726 25.5265 43.688 25.6246C43.7033 25.7226 43.6992 25.8227 43.6758 25.9191C43.6585 26.0136 43.6221 26.1036 43.5687 26.1835C43.5153 26.2634 43.4462 26.3315 43.3655 26.3837C43.2847 26.4359 43.1942 26.471 43.0994 26.4869C43.0046 26.5028 42.9075 26.4991 42.8142 26.4762C41.0402 26.1217 39.2156 27.7422 39.1649 27.7422C39.1068 27.8217 39.0304 27.8861 38.9422 27.9302C38.8541 27.9742 38.7566 27.9966 38.6581 27.9954ZM51.0756 16.3988C53.8125 11.9931 54.3701 4.2451 52.4441 2.06757C51.8189 1.41668 50.9643 1.03515 50.0619 1.00413C47.2743 0.953485 43.0169 2.67525 39.9759 5.35919C37.7631 4.26547 35.2837 3.82622 32.8294 4.09318H32.3226C29.8676 3.80085 27.3809 4.24137 25.1762 5.35919C22.1352 2.67525 17.9284 0.902845 15.0901 1.00413C14.642 1.01289 14.2002 1.11155 13.791 1.29423C13.3818 1.47692 13.0135 1.7399 12.708 2.06757C10.8327 4.2451 11.3395 12.0437 14.0764 16.3988C11.5422 20.5513 7.63958 30.0716 8.80531 36.4523C10.1231 43.8964 16.6613 49.7707 26.6967 52.6572C30.5542 53.7713 34.6486 53.7713 38.506 52.6572C48.5414 49.8213 55.029 43.8964 56.3974 36.4523C57.5125 30.0716 53.6098 20.5513 51.0756 16.3988ZM49.9606 2.52333C50.2031 2.51431 50.4449 2.55454 50.6714 2.64158C50.8979 2.72862 51.1044 2.86067 51.2784 3.02973C52.5455 4.34638 52.3934 10.8283 50.1633 14.9808C48.845 13.0269 47.3522 11.1963 45.7031 9.51169C46.1086 8.6508 47.0209 7.03031 48.7442 6.52391C48.9391 6.46347 49.102 6.32815 49.197 6.14771C49.2921 5.96727 49.3115 5.75649 49.251 5.56175C49.1905 5.367 49.0551 5.20424 48.8745 5.10927C48.6939 5.01431 48.4829 4.99491 48.288 5.05534C46.3113 5.66303 45.1456 7.28351 44.5374 8.3976C43.5846 7.53798 42.549 6.77465 41.4457 6.11879C44.3347 3.7387 47.9332 2.47269 49.9606 2.52333ZM13.9244 3.02973C14.2887 2.70863 14.7564 2.52892 15.2422 2.52333C17.2695 2.47269 20.8681 3.7387 23.8077 6.16943C22.7045 6.82529 21.6688 7.58862 20.716 8.44824C20.1078 7.28352 18.9421 5.66303 16.9654 5.10598C16.8689 5.07606 16.7674 5.06542 16.6668 5.07467C16.5662 5.08393 16.4684 5.11289 16.3789 5.15991C16.2895 5.20694 16.2102 5.2711 16.1456 5.34874C16.081 5.42637 16.0324 5.51596 16.0024 5.61239C15.9725 5.70881 15.9618 5.81019 15.9711 5.91073C15.9803 6.01127 16.0093 6.109 16.0564 6.19835C16.1035 6.28769 16.1677 6.3669 16.2454 6.43145C16.3231 6.496 16.4127 6.54463 16.5093 6.57455C18.2325 7.08095 19.1448 8.70144 19.5503 9.56233C17.8589 11.2038 16.3468 13.0202 15.0394 14.9808C12.8093 10.8283 12.6573 4.34638 13.9244 3.02973ZM15.6476 16.8039C18.8407 11.8918 23.7064 6.32135 29.6364 5.61239C30.4634 5.56168 31.2928 5.56168 32.1199 5.61239C32.4218 5.66338 32.7302 5.66338 33.0322 5.61239C33.8569 5.51068 34.691 5.51068 35.5157 5.61239C41.4457 6.27071 46.362 11.8918 49.5551 16.8039C52.1831 21.1599 53.971 25.9693 54.8262 30.9831C44.9936 33.5152 41.8005 31.4895 38.9115 29.7171C37.1883 28.6537 35.465 27.5396 32.576 27.5396C29.687 27.5396 27.9638 28.6537 26.2405 29.7171C23.4023 31.4895 20.1585 33.5152 10.3258 30.9831C11.2216 25.9726 13.025 21.1674 15.6476 16.8039ZM54.8769 36.1991C53.6605 43.0355 47.5278 48.5047 38.1006 51.1886C34.5045 52.2012 30.6983 52.2012 27.1022 51.1886C17.675 48.5047 11.5422 43.0355 10.3258 36.1991C10.1147 34.9781 10.0806 33.7331 10.2245 32.5024C12.9026 33.2355 15.6594 33.6436 18.4352 33.7177C22.794 33.7177 25.0241 32.2998 27.1022 31.0338C28.7747 30.021 30.1939 29.1095 32.6267 29.1095C35.0595 29.1095 36.4787 30.021 38.1512 31.0338C41.243 32.9581 44.7401 35.1356 55.029 32.553C55.1291 33.77 55.0781 34.9947 54.8769 36.1991ZM41.6991 20.1461C41.2138 19.6402 40.6264 19.2432 39.9759 18.9814C39.325 18.7867 38.6267 18.8225 37.9992 19.0827C37.6892 19.2086 37.4106 19.4007 37.183 19.6457C36.9553 19.8906 36.7841 20.1825 36.6814 20.5006C36.5909 20.816 36.5712 21.1475 36.6238 21.4714C36.6764 21.7953 36.7999 22.1036 36.9855 22.3743C37.3649 22.9265 37.9178 23.3364 38.5567 23.539C38.9027 23.6391 39.2609 23.6903 39.6211 23.691C39.9648 23.6935 40.3069 23.6422 40.6348 23.539C41.1002 23.455 41.5264 23.2243 41.8512 22.8807C42.1846 22.4937 42.355 21.9927 42.3266 21.4828C42.2983 20.973 42.0734 20.4939 41.6991 20.1461ZM40.2065 22.1272C39.8111 22.2198 39.3977 22.2001 39.0129 22.0705C38.7014 21.9806 38.432 21.7832 38.2526 21.5134C38.1862 21.4287 38.1421 21.3287 38.1244 21.2225C38.1067 21.1163 38.1159 21.0074 38.1512 20.9057C38.3221 20.3487 38.9764 20.2783 39.4994 20.3912C39.7224 20.4221 39.9356 20.5026 40.1233 20.6267C40.311 20.7508 40.4684 20.9154 40.5841 21.1083C40.633 21.1988 40.662 21.2986 40.6693 21.4012C40.6765 21.5038 40.6617 21.6067 40.626 21.7031C40.5903 21.7995 40.5344 21.8872 40.462 21.9604C40.3897 22.0335 40.3026 22.0904 40.2065 22.1272ZM23.3009 22.8807C23.6256 23.2243 24.0519 23.455 24.5173 23.539C24.8452 23.6422 25.1872 23.6935 25.531 23.691C25.8911 23.6903 26.2494 23.6391 26.5953 23.539C27.2342 23.3364 27.7872 22.9265 28.1665 22.3743C28.3522 22.1036 28.4757 21.7953 28.5283 21.4714C28.5808 21.1475 28.5612 20.816 28.4706 20.5006C28.3679 20.1825 28.1967 19.8906 27.9691 19.6457C27.7414 19.4007 27.4628 19.2086 27.1529 19.0827C26.5253 18.8225 25.8271 18.7867 25.1762 18.9814C24.5256 19.2432 23.9382 19.6402 23.4529 20.1461C23.0787 20.4939 22.8538 20.973 22.8254 21.4828C22.7971 21.9927 22.9675 22.4937 23.3009 22.8807ZM24.568 21.1083C24.6836 20.9154 24.8411 20.7508 25.0288 20.6267C25.2165 20.5026 25.4297 20.4221 25.6526 20.3912C26.1757 20.2783 26.83 20.3487 27.0008 20.9057C27.0362 21.0074 27.0454 21.1163 27.0277 21.2225C27.01 21.3287 26.9659 21.4287 26.8994 21.5134C26.7201 21.7832 26.4506 21.9806 26.1392 22.0705C25.7544 22.2001 25.341 22.2198 24.9456 22.1272C24.8495 22.0904 24.7624 22.0335 24.69 21.9604C24.6177 21.8872 24.5618 21.7995 24.526 21.7031C24.4903 21.6067 24.4756 21.5038 24.4828 21.4012C24.49 21.2986 24.5191 21.1988 24.568 21.1083ZM50.6701 55.493C50.6701 55.8846 50.3525 56.202 49.9606 56.202C49.5687 56.202 49.251 55.8846 49.251 55.493C49.251 55.1015 49.5687 54.7841 49.9606 54.7841C50.3525 54.7841 50.6701 55.1015 50.6701 55.493ZM47.4264 37.3638C47.4264 37.7554 47.1087 38.0728 46.7168 38.0728C46.3249 38.0728 46.0072 37.7554 46.0072 37.3638C46.0072 36.9723 46.3249 36.6549 46.7168 36.6549C47.1087 36.6549 47.4264 36.9723 47.4264 37.3638ZM29.4336 47.188C29.4336 47.5796 29.1159 47.897 28.7241 47.897C28.3322 47.897 28.0145 47.5796 28.0145 47.188C28.0145 46.7965 28.3322 46.4791 28.7241 46.4791C29.1159 46.4791 29.4336 46.7965 29.4336 47.188ZM60.6042 16.3988C60.6042 16.7903 60.2865 17.1077 59.8946 17.1077C59.5027 17.1077 59.185 16.7903 59.185 16.3988C59.185 16.0072 59.5027 15.6898 59.8946 15.6898C60.2865 15.6898 60.6042 16.0072 60.6042 16.3988ZM56.7522 49.3149C56.7522 49.9022 56.2757 50.3784 55.6878 50.3784C55.1 50.3784 54.6235 49.9022 54.6235 49.3149C54.6235 48.7276 55.1 48.2515 55.6878 48.2515C56.2757 48.2515 56.7522 48.7276 56.7522 49.3149ZM17.9284 54.7841C17.9284 55.4553 17.3838 55.9994 16.712 55.9994C16.0402 55.9994 15.4956 55.4553 15.4956 54.7841C15.4956 54.1128 16.0402 53.5687 16.712 53.5687C17.3838 53.5687 17.9284 54.1128 17.9284 54.7841ZM35.9212 59.291C35.9212 59.6826 35.6035 60 35.2116 60C34.8197 60 34.502 59.6826 34.502 59.291C34.502 58.8995 34.8197 58.5821 35.2116 58.5821C35.6035 58.5821 35.9212 58.8995 35.9212 59.291ZM20.0064 37.3638C20.0064 37.8672 19.598 38.2753 19.0941 38.2753C18.5903 38.2753 18.1818 37.8672 18.1818 37.3638C18.1818 36.8604 18.5903 36.4523 19.0941 36.4523C19.598 36.4523 20.0064 36.8604 20.0064 37.3638ZM64 36.3004C64 36.6919 63.6823 37.0093 63.2904 37.0093C62.8985 37.0093 62.5808 36.6919 62.5808 36.3004C62.5808 35.9088 62.8985 35.5914 63.2904 35.5914C63.6823 35.5914 64 35.9088 64 36.3004ZM40.7868 42.7317C40.7868 43.1232 40.4691 43.4406 40.0772 43.4406C39.6853 43.4406 39.3677 43.1232 39.3677 42.7317C39.3677 42.3401 39.6853 42.0227 40.0772 42.0227C40.4691 42.0227 40.7868 42.3401 40.7868 42.7317ZM4.29445 20.2981C4.29445 20.6896 3.97676 21.007 3.58488 21.007C3.19299 21.007 2.8753 20.6896 2.8753 20.2981C2.8753 19.9065 3.19299 19.5891 3.58488 19.5891C3.97676 19.5891 4.29445 19.9065 4.29445 20.2981ZM2.92599 37.7689C2.92599 38.3003 2.49484 38.7311 1.96299 38.7311C1.43115 38.7311 1 38.3003 1 37.7689C1 37.2375 1.43115 36.8068 1.96299 36.8068C2.49484 36.8068 2.92599 37.2375 2.92599 37.7689ZM6.66138 48.9432C6.66138 49.3258 6.35096 49.636 5.96803 49.636C5.5851 49.636 5.27467 49.3258 5.27467 48.9432C5.27467 48.5606 5.5851 48.2505 5.96803 48.2505C6.35096 48.2505 6.66138 48.5606 6.66138 48.9432Z" stroke="#A680DB"/>
</g>
</svg>
