<?xml version="1.0" encoding="utf-8"?>
<!-- Generator: Adobe Illustrator 27.3.1, SVG Export Plug-In . SVG Version: 6.00 Build 0)  -->
<svg version="1.1" id="Camada_1" xmlns="http://www.w3.org/2000/svg" xmlns:xlink="http://www.w3.org/1999/xlink" x="0px" y="0px"
	 viewBox="0 0 1080 1350" style="enable-background:new 0 0 1080 1350;" xml:space="preserve">
<style type="text/css">
	.st0{fill:#9E80D3;}
</style>
<g>
	<g>
		<path class="st0" d="M697.25,450.33c-29.52,0.76-59.36,1.46-88.89,2.23c-21.25,0.76-42.57,3.05-63.56,1.27
			c-35.57-3.25-70.63,2.74-105.94,4.26c-2.99,0-7,0.76-6.24,5.22c0.45,4.01,3.75,4.26,7.25,3.75c24.24-2.74,48.8-3.5,73.36-4.96
			c9.23-0.51,18.77-0.76,28.25-0.25c9.29,0.51,13.04,5.98,11.26,15.27c-1.46,8.78-5.73,16.8-9.99,24.56
			c-14.25,26.53-31.05,51.54-46.58,77.37c-1.72,2.48-3.75,4.01-7,4.2c-4.01,0.51-8.02,1.02-12.28,1.78
			c-32.77,4.77-65.35,9.99-97.67,18.52c-2.23,0.76-4.45,1.53-6.74,2.29c-1.97,0.95-4.01,2.23-3.5,4.96
			c0.51,2.54,2.74,3.31,5.03,3.05c3.5,0,6.74,0,9.99-0.76c27.3-4.52,54.59-9.03,81.89-14.32c5.73-1.21,14,1.27,16.8-7.76
			c0.51-0.7,3.25-0.7,5.47,0.25c-1.46,2.55-2.48,4.26-3.5,6.04c-19.02,30.8-37.54,61.85-54.85,93.66c-2.48,4.26-5.47,6.74-9.99,8.27
			c-8.78,2.8-17.5,5.73-26.21,8.78c-7.89,2.74-15.72,5.66-23.54,8.59c0.89,2.35,2.54,4.26,4.58,5.6c6.3-2.55,12.66-4.96,19.09-7.25
			c14-5.22,28.12-9.99,42.38-14.51c40.28-12.98,81.38-23.54,123.18-30.54c2.48-0.51,7-0.25,6.24-4.26
			c-0.76-4.77-4.77-2.48-7.76-1.97c-32.51,5.73-64.84,13.49-96.65,22.52c-8.53,2.48-16.99,5.03-25.01,7.51
			c-1.27-2.04-0.51-2.99,0-4.01c17.5-33.09,36.78-65.09,56.31-96.9c1.53-2.48,3.5-3.5,6.24-3.75c26.85-3.25,53.38-5.03,80.17-4.26
			c3.24,0.25,6.24,0.51,9.48,0.51c2.8,0,5.28-1.27,5.54-4.52c0-3.25-2.29-4.77-5.28-5.03h-14.51c-24.56,0.51-48.8,3.31-74.64,6.04
			c4.26-7,8.02-13.04,11.77-19.02c14.32-23.03,30.03-45.11,42.06-69.1c5.28-10.56,10.05-21.06,3.75-33.34h6.55
			c44.54-1.21,89.14-2.74,133.68,0c4.01,0.25,8.53,0.25,8.53-5.22C705.78,449.57,701.26,450.07,697.25,450.33z"/>
		<path class="st0" d="M655.96,476.35c-2.74,0-5.22,2.04-4.77,5.03c0.76,4.77-1.21,8.53-2.74,12.53
			c-9.48,25.77-19.28,51.28-28.51,77.12c-16.03,44.54-32.32,88.89-45.62,134.44c-0.95,3.25-2.99,7.76,2.29,9.03
			c4.71,1.21,4.96-3.31,5.47-6.55c6.3-32.77,17.31-64.07,27.81-95.38c13.81-40.09,30.29-79.41,46.07-118.66
			c1.78-4.01,2.8-8.27,4.26-12.28C659.96,478.64,658.95,476.1,655.96,476.35z"/>
		<path class="st0" d="M641.45,581.78c-2.23,1.02-4.01,2.48-4.01,5.28c0.25,1.97,1.02,3.25,2.74,3.25h0.76
			c2.99-0.25,3.75-2.54,3.75-5.28C644.44,583.25,643.68,581.78,641.45,581.78z M677.27,585.28c-1.02-1.02-2.04-1.53-2.99-1.53
			c-1.02,0-2.04,0.25-2.8,1.02c-2.48,1.78-5.22,3.75-7,6.24c-4.26,5.79-10.24,9.29-16.54,12.28c-2.48,1.02-5.22,2.99-7.76,2.99
			c-0.7,0-1.46-0.19-2.23-0.7c-1.02-0.76-1.53-1.53-1.53-2.55c0-1.97,2.29-4.52,2.8-6.49l0.25-2.04c0-0.7-0.25-1.46-1.02-1.97
			l-1.02-0.25c-1.02,0-1.97,1.27-2.48,2.04c-2.8,3.5-5.03,7.25-5.54,11.01c0,5.73,3.75,8.78,9.8,8.78c1.46,0,3.25-0.25,5.22-0.76
			c3.5-1.02,7-2.54,10.56-3.75c1.21,4.01,1.97,8.02,3.5,11.77c1.97,5.22,2.99,10.75,2.99,15.97c0,5.28-1.02,10.31-2.99,15.53
			c-6.04,17.05-16.29,31.05-28.06,44.09c-1.27,1.53-3.5,2.99-3.5,4.77c0,0.76,0.25,1.72,1.21,2.48c0.76,0.51,1.53,0.76,2.04,0.76
			c1.97,0,3.75-2.23,5.03-3.75c8.97-10.75,16.99-22.01,23.8-34.29c5.98-10.5,9.74-21.06,9.74-32.07c0-6.24-1.27-12.53-3.75-19.02
			c-0.76-1.97-1.27-4.26-1.27-5.98c0-4.26,2.04-8.27,6.04-11.52c2.74-2.29,4.96-5.03,7.25-7.76c0.76-0.76,1.27-1.78,1.27-2.8
			C678.29,587.06,678.03,586.05,677.27,585.28z"/>
		<path class="st0" d="M714.05,566.77c-3.5-2.8-7-2.04-9.99,0.51c-4.26,3.75-7.51,8.02-10.05,13.23c-0.7,1.53-1.72,2.99,0,4.26
			c1.78,1.27,3.05,0,4.26-1.27c2.29-2.74,4.26-5.22,6.55-7.76c2.48-2.99,4.45-2.74,6.49,0.76c1.78,2.99,3.75,5.54,5.73,8.27
			c1.27,1.53,3.05,1.78,4.52,0.51c1.27-1.02,1.78-2.48,1.53-4.26C720.09,576.25,718.56,570.52,714.05,566.77z M753.11,600.55
			c-0.51-0.76-1.27-1.02-1.72-1.02c-1.02,0-2.04,0.51-2.8,1.02l-0.19,0.13l-4.33,3.37c-9.23,5.79-18.01,12.28-28.76,15.02
			l-3.24,0.51c-2.04,0-2.99-0.76-2.99-2.74c0-1.02,0.19-2.04,0.7-3.5c1.27-4.52,3.05-9.29,5.28-13.3c1.02-1.72,1.27-3.25,1.27-4.77
			c0-2.99-1.27-5.47-3.5-7.76c-1.27-1.46-3.05-2.23-4.52-2.23c-2.29,0-4.52,1.27-6.55,2.48c-9.48,5.79-16.73,13.81-22.52,23.03
			c-1.02,2.04-2.48,4.01-2.48,6.3c0,1.21,0.51,2.48,1.72,3.5c1.02,0.76,2.04,0.95,3.05,0.95c1.97,0,4.26-1.46,5.98-2.74l19.79-15.78
			c-1.27,3.25-2.23,5.54-2.74,7.76c-0.51,2.04-1.02,4.26-1.02,6.55c0,1.97,0.51,4.01,2.23,5.73c1.78,1.78,3.75,2.29,5.79,2.29
			c2.23,0,4.52-0.76,6.49-1.53c9.93-3.37,18.58-8.97,26.85-14.95c2.23-1.59,4.33-3.25,6.49-4.84c0.95-0.76,1.97-1.53,1.97-2.48
			C753.37,601.32,753.37,600.81,753.11,600.55z M685.03,613.6c5.47-9.04,12.28-16.8,23.29-20.3
			C701.77,601.57,694.26,608.57,685.03,613.6z"/>
		<path class="st0" d="M809.74,601.57c-0.51-0.51-0.76-0.76-1.27-0.76c-1.02,0-2.04,1.53-2.99,1.97c-0.83,0.64-1.65,1.21-2.48,1.85
			c-4.96,3.69-9.99,7.32-15.84,9.48c-1.72,0.7-3.25,0.95-4.45,0.95c-3.05,0-4.26-1.97-4.52-6.74v-12.28c0-2.48-0.25-5.03-2.8-6.24
			c-0.7-0.51-1.72-0.51-2.48-0.51c-1.72,0-3.25,0.76-4.77,2.23c-3.5,2.99-7,6.3-12.03,11.01c2.29-5.47,4.01-9.23,5.28-12.73
			l0.51-1.78c0-1.21-1.02-2.48-2.48-2.99l-1.78-0.51c-1.27,0-2.23,0.76-2.99,2.29c-2.1,4.58-4.2,9.23-6.24,13.87
			c-1.21,2.74-2.42,5.47-3.5,8.21c-0.45,0.95-0.89,1.97-1.27,2.93c-0.25,0.76-0.51,1.78-0.51,2.74c0,1.78,0.51,3.31,2.48,4.26
			c0.76,0.51,1.27,0.51,2.04,0.51c1.46,0,2.99-1.27,4.26-2.48c2.99-2.99,5.98-6.55,8.72-9.54c3.5-3.75,6.3-7.76,11.52-11.01v12.03
			c0.25,8.27,3.75,12.53,9.54,12.53c1.97,0,4.52-0.51,7.25-1.78c4.52-1.85,8.53-4.52,12.22-7.57c2.23-1.78,4.39-3.69,6.55-5.66
			c1.02-0.76,2.74-1.53,2.74-2.8C810.44,602.53,810.19,602.08,809.74,601.57z"/>
		<path class="st0" d="M843.27,583.76c-2.04-1.46-4.26-0.95-6.04,0.51c-2.48,2.29-4.2,2.29-6.74,0.25
			c-2.23-1.72-4.96-1.46-7.76-0.51c-9.74,4.14-16.16,11.26-19.72,20.62c-0.57,1.46-1.08,2.93-1.53,4.45
			c-0.25,0.89-0.32,1.65-0.32,2.42c0.25,4.26,4.45,6.49,9.54,4.84c4.01-1.27,7.51-3.75,10.05-6.74c5.22-5.79,16.29-5.54,16.03-18.07
			c1.97,3.25,1.46,4.26,1.21,5.54c-10.5,39.07-25.26,76.61-45.05,112.17c-7.25,13.04-15.27,25.77-26.02,36.27
			c-2.8,2.8-5.53,6.55-10.31,5.54c-2.99-0.25-5.73,0.25-5.47,3.75c0.25,3.5,2.99,4.77,6.24,4.52c3.75-0.25,6.74-2.48,9.54-4.77
			c5.98-5.47,10.75-12.28,15.27-19.28c24.75-38.3,42.06-80.11,56.82-122.93c2.48-7.25,4.26-14.76,6.24-22.27
			C846.01,587.51,845.5,585.03,843.27,583.76z M810.95,607.55c3.25-7.25,7.76-13.23,16.03-15.02
			C822.98,598.77,817.5,603.8,810.95,607.55z"/>
		<path class="st0" d="M973.2,470.63c-2.48-1.02-4.52,0-5.73,1.72c-2.29,4.26-4.52,8.53-6.24,13.04
			c-15.59,37.03-37.6,69.86-64.39,99.64c-7,7.76-14.51,15.02-23.8,20.81c-0.51-2.54,1.53-3.75,2.04-5.28
			c1.46-4.26,1.97-8.27-2.04-11.26c-4.01-3.25-7.76-1.27-10.75,1.72c-5.28,4.77-8.27,10.56-8.78,17.56
			c-0.51,8.02,5.53,12.79,13.3,10.24c5.73-1.72,10.75-5.22,15.53-8.97c14-11.77,25.77-25.83,36.78-40.59
			c5.28-6.74,10.31-13.74,15.53-21.06c1.02,2.8-0.45,4.26-0.96,6.04c-5.79,16.54-11.52,32.83-17.05,49.06
			c-16.54,48.36-29.27,97.92-47.34,145.52c-0.51,1.21-0.76,2.48-0.76,3.5c-0.25,2.23,0.76,4.01,2.8,4.52
			c1.97,0.7,4.01,0.19,5.22-1.53c1.02-1.97,1.78-4.01,2.29-5.98c5.73-20.04,11.52-40.34,17.24-60.38
			c20.3-71.58,43.33-142.21,77.88-208.32c0.51-1.27,1.27-2.48,1.78-4.01C976.51,473.87,975.75,471.83,973.2,470.63z"/>
	</g>
	<g>
		<path class="st0" d="M258.77,605.11c-0.7,0.47-1.27,1.04-1.97,1.39c-0.93,0.7-1.85,0.58-2.67-0.35c-0.7-1.04-0.58-1.97,0.23-2.78
			c1.16-0.93,2.55-1.85,3.83-2.67c14.72-9.04,29.33-18.32,43.82-27.71c1.74-1.16,2.9-2.55,3.59-4.64
			c2.55-8.11,4.64-16.23,3.83-24.92c-0.93-8.58-5.22-14.72-12.75-18.78c-6.38-3.6-13.45-5.1-20.41-7.19
			c-1.97-0.58-4.06-1.16-6.03-1.97c-7.42-2.9-8.23-7.42-2.32-12.99c2.78-2.55,5.92-4.52,9.04-6.38c15.19-8.81,31.42-15.3,47.99-21.1
			c18.55-6.49,37.33-11.94,56.92-14.14c6.61-0.7,13.22-0.93,19.71,0.35c6.95,1.39,11.13,4.98,11.71,10.54
			c0.47,3.83-0.93,7.31-2.67,10.55c-4.18,8.23-10.32,15.07-16.81,21.56c-19.13,19.36-40.8,35.7-62.83,51.47
			c-6.26,4.52-12.52,9.05-18.9,13.22c-3.24,2.09-5.68,4.52-6.84,8.23c-0.46,1.27-0.7,3.36-2.67,2.9c-2.2-0.7-0.11-2.55-0.58-4.17
			C287.52,585.64,272.68,594.8,258.77,605.11z M310.12,567.67c7.19-4.98,14.49-9.97,21.68-15.07c22.02-15.88,43.7-32.34,62.48-52.28
			c5.92-6.26,11.59-12.87,14.84-20.87c3.6-8.7,0.81-13.91-8.34-15.53c-9.74-1.86-19.47-0.7-29.21,0.93
			c-23.65,4.18-46.37,11.82-68.28,21.33c-10.9,4.75-21.56,9.74-31.07,17.04c-1.97,1.51-4.75,3.13-4.41,5.92
			c0.47,2.78,3.83,2.9,6.15,3.82c0.47,0.24,1.04,0.35,1.51,0.58c5.91,1.73,11.94,3.13,17.5,5.44c8.92,3.71,15.99,9.39,18.66,19.24
			c0.7,2.55,0.93,5.22,0.93,7.89c-0.12,2.55,0,5.1,0,7.54c0-0.12,0.35-0.35,0.46-0.7c7.54-16.47,14.96-33.04,20.87-50.2
			c1.98-5.56,3.83-11.12,4.29-17.16c0.11-1.39,0.23-2.67-1.74-3.36c-2.09-0.58-1.62-2.08,0-3.13c2.2-1.28,4.87,0.23,5.45,3.13
			c0.81,3.71,0,7.31-1.04,10.78c-4.87,17.39-12.64,33.5-20.06,49.85c-3.71,8.11-7.42,16.11-11.24,24.23
			C309.78,567.2,309.89,567.44,310.12,567.67z"/>
		<path class="st0" d="M376.05,541.7c-0.7-0.58-1.04-1.16-1.04-1.86c0-0.34,0.11-0.69,0.23-1.16l4.87-13.45l1.5-4.75
			c0.35-1.27,0.81-2.44,2.09-2.44h0.23c1.39,0.12,1.51,1.16,1.51,2.32v1.86c1.39-0.12,1.74-1.39,2.55-2.09
			c1.27-1.16,2.44-1.74,3.36-1.74c1.39,0,2.55,1.16,3.25,3.59c0.23,0.81,0.23,1.74,0.46,2.55c0.81,3.24,1.74,4.41,4.06,4.41
			c0.7,0,1.39-0.12,2.32-0.23c0.58-0.12,1.16-0.47,1.86-0.47c0.46,0,0.81,0.12,1.27,0.47c-2.09,1.85-4.29,2.78-6.15,2.78
			c-3.01,0-5.56-2.32-6.72-6.61c-0.23-0.81,0.12-2.09-0.93-2.32h-0.23c-1.04,0-1.39,1.04-1.98,1.74c-3.47,4.52-5.91,9.62-8.46,14.84
			c-0.47,0.93-0.81,2.08-1.86,2.67c-0.35,0.11-0.7,0.23-1.16,0.23C376.75,542.05,376.4,541.93,376.05,541.7z"/>
		<path class="st0" d="M424.17,542.28v-0.23c0.11-1.16,0.81-1.97,2.2-1.97c1.16,0.12,1.62,0.93,1.74,1.97
			c-0.35,1.16-0.93,1.97-2.2,1.97C424.86,543.91,424.17,543.21,424.17,542.28z"/>
		<path class="st0" d="M410.72,542.05c-0.83-0.83-1.07-1.77-1.07-2.72c0-1.06,0.24-2.13,0.47-3.08c0.24-1.07,0.71-2.13,1.3-3.67
			l-9.35,7.46c-0.83,0.59-1.89,1.3-2.84,1.3c-0.47,0-0.95-0.12-1.42-0.47c-0.59-0.47-0.83-1.06-0.83-1.66
			c0-1.07,0.71-2.01,1.18-2.96c2.72-4.38,6.16-8.17,10.66-10.89c0.95-0.59,2.01-1.18,3.08-1.18c0.71,0,1.54,0.36,2.13,1.07
			c1.07,1.07,1.66,2.25,1.66,3.67c0,0.71-0.12,1.42-0.59,2.25c-1.07,1.9-1.9,4.14-2.49,6.28c-0.24,0.71-0.36,1.18-0.36,1.66
			c0,0.95,0.47,1.3,1.42,1.3l1.54-0.24c5.09-1.3,9.23-4.38,13.61-7.1l2.13-1.66c0.36-0.24,0.83-0.48,1.3-0.48
			c0.24,0,0.59,0.12,0.83,0.48c0.12,0.12,0.12,0.35,0.12,0.47c0,0.47-0.47,0.83-0.95,1.18c-4.85,3.67-9.83,7.34-15.74,9.35
			c-0.95,0.36-2.02,0.71-3.08,0.71C412.5,543.12,411.55,542.88,410.72,542.05z M411.91,527.96c-5.21,1.66-8.41,5.33-11.01,9.59
			C405.28,535.19,408.83,531.87,411.91,527.96z"/>
	</g>
	<path class="st0" d="M958.46,623.09c-1.75-1.75-2.26-3.75-2.26-5.76c0-2.25,0.5-4.5,1-6.51c0.5-2.26,1.5-4.51,2.76-7.76
		l-19.78,15.77c-1.75,1.26-4,2.75-6.01,2.75c-1,0-2-0.25-3-1c-1.26-1-1.75-2.25-1.75-3.5c0-2.26,1.5-4.26,2.5-6.26
		c5.76-9.26,13.02-17.28,22.54-23.04c2.01-1.25,4.26-2.5,6.51-2.5c1.5,0,3.26,0.75,4.5,2.26c2.26,2.26,3.5,4.76,3.5,7.76
		c0,1.5-0.25,3.01-1.25,4.76c-2.26,4.01-4.01,8.76-5.26,13.27c-0.5,1.5-0.75,2.5-0.75,3.5c0,2,1,2.75,3,2.75l3.26-0.5
		c10.77-2.76,19.53-9.26,28.79-15.02l4.51-3.5c0.75-0.5,1.75-1.01,2.75-1.01c0.5,0,1.25,0.25,1.75,1.01c0.25,0.25,0.25,0.75,0.25,1
		c0,1-1,1.75-2,2.5c-10.26,7.76-20.78,15.52-33.3,19.78c-2.01,0.75-4.26,1.5-6.51,1.5C962.21,625.34,960.21,624.84,958.46,623.09z
		 M960.96,593.29c-11.02,3.5-17.78,11.27-23.29,20.28C946.94,608.56,954.45,601.55,960.96,593.29z"/>
	<g>
		<path class="st0" d="M321.99,615.46c-29.79,35.06-56.08,72.87-84.63,108.92c-2.75,3.51-5.76,6.77-8.76,9.52
			c-9.02,8.01-16.78,5.51-19.28-6.26c-2.26-11.02-2.5-22.03-3.26-33.05c-0.75-16.52-2.01-33.05-4.76-49.32
			c-2.5-0.5-2.75,1.5-3.26,2.5c-32.8,67.1-66.1,133.95-94.14,203.06c-3.5,8.52-6.26,17.53-9.77,26.3c-1.25,3.5-2.26,8.51-7.51,6.51
			c-5.26-2-2.75-6.51-1.25-9.76c22.28-51.83,46.57-102.66,70.61-153.74c13.02-27.79,26.04-55.58,39.31-83.63
			c3.26-7.01,0.75-15.77-5.51-22.03c-4.76-4.5-11.02-4.75-18.78-0.5c-10.26,5.51-18.03,14.27-25.29,23.28
			c-20.53,26.54-36.55,55.34-44.32,88.39c-1.75,7.01-3.26,14.02-1.26,21.28c0.75,2.5,1.26,6.01-2.5,6.51c-3.5,0.25-4-2.75-4.75-5.26
			c-2.26-8.51-1.01-17.03,1.25-25.04c10.52-39.81,30.55-74.61,59.09-104.41c4.76-4.75,10.02-9.01,16.28-12.02
			c12.02-5.76,21.78-3.26,29.29,8.01c1,1.5,1.26,3.76,4.01,4.51c2-5.26,4.01-10.52,6.26-16.02c-1,0.25-1.25,0.25-1.5,0.25
			c-3.26,1-5.76,7.76-9.52,3.5c-4.26-5.01,2.26-7.51,4.76-10.26c3.5-4.01,7.76-10.02,13.77-6.26c6.01,3.75,3.01,10.51,0.5,15.02
			c-9.02,16.78-11.02,33.55-7.26,52.34c4.26,20.28,4.26,41.31,6.26,61.84c0.5,3.5,0.25,8.26,3.75,9.51c3.01,1,5.51-3.26,7.76-5.51
			c21.03-24.04,39.56-49.83,59.59-74.62c21.78-27.04,43.07-54.33,67.85-78.87c2.76-2.76,5.76-5.01,8.77-7.51
			c2.5-2.01,5.51-3.5,8.51-1.26c2.75,2.01,2.26,5.26,1.5,8.02c-1.5,4.75-3.26,9.51-5.26,14.27
			c-17.28,37.31-36.31,73.86-51.83,111.92c-15.02,36.56-28.79,73.87-36.06,112.93c-2,11.27-4.5,22.79-2.5,34.55
			c0.75,4.01-0.75,7.51-5.26,8.02c-4.5,0.25-6.26-3.26-6.51-7.02c-0.5-13.02,2.5-25.54,5.51-37.8
			c13.77-56.59,36.31-109.92,60.84-162.75c10.02-21.54,20.03-43.07,30.3-64.6c1.25-2.75,2.75-5.51,2.75-10.26
			C349.03,583.41,335.51,599.44,321.99,615.46z"/>
		<path class="st0" d="M387.11,747.16c-3.75,2.76-7.51,6.01-12.27,3.76c-5.26-2.5-3.01-7.76-3.51-12.52
			c-4.75,2.75-9.51,5.51-14.27,8.02c-6.01,3.5-12.52,6.26-19.54,7.26c-10.26,1.5-16.78-6.01-13.77-16.02
			c2-6.51,6.01-11.51,12.27-14.52c3.25-1.5,7.01-2,10.01,1.25c3.01,3.26,1.5,6.77-0.5,9.77c-2.26,4.01-6.26,6.51-10.77,9.77
			c7.51,1,12.52-1.75,17.53-4.26c6.51-3.51,12.77-7.51,19.28-11.27c3-1.75,6.01-4.5,10.02-2c3.5,2.5,2.25,6.01,1.5,9.26
			c-0.25,0.5,0,1.25,0.25,2.75c4.26-2.75,8.01-5.51,12.27-7.76c7.02-4.01,11.02-2.5,13.78,5.26c3.5,9.26,5.51,10.26,14.77,6.51
			c4.76-2.01,9.51-4.76,14.02-7.26c1.75-0.75,3.26-1.5,4.5,0.25c1.5,2-0.25,3.25-1.5,4.26c-5.76,4.5-11.77,9.01-19.03,11.77
			c-10.77,4-16.53,1.25-20.78-9.52c-0.25-1.25-1-2.25-1.75-3.75C395.38,741.41,391.37,744.41,387.11,747.16z"/>
		<path class="st0" d="M434.95,750.67c-1-2.01-1.5-4.01-1.5-5.76c0-4.51,2.76-8.26,5.51-12.02c3.26-4.51,7.76-8.02,13.27-9.52
			l2.5-0.5c2,0,3.75,1,5.01,3c0.5,1,0.75,1.75,0.75,2.76c0,1.75-0.75,3.25-2.01,4.5c-3.26,3.5-7.26,6.01-12.02,6.26
			c-4.01,0.5-4.76,2.76-5.01,5.51v1c0,2.5,2,3.75,4.5,4.76c2.26,0.75,4.26,1,6.51,1c4.5,0,8.76-1.26,13.27-2.26
			c11.02-2.26,21.03-6.76,31.05-11.51c1.75-0.75,3.5-1.5,5.26-2.5c1.25-0.5,2.75-1.26,4.01-1.26c0.75,0,1.25,0.25,1.75,1l0.5,1.26
			c0,1.5-2.5,2.5-3.75,3c-7.02,3.5-13.78,7.02-20.78,10.02c-10.51,4.51-21.03,8.26-34.31,8.51
			C444.71,757.68,438.2,757.43,434.95,750.67z"/>
		<path class="st0" d="M460.24,901.16c-1.5-1-2-2-2-3c0-2.26,3-4.51,4.5-6.26c13.77-16.53,26.79-33.8,38.06-51.83
			c12.77-20.54,25.04-41.31,29.79-65.35c0.5-2,0.75-4.26,0.75-6.26c-0.25-5.76-2.25-8.02-7.01-8.02l-5.51,0.5
			c-8.76,0-17.03-5.01-18.78-12.02c-0.25-1.26-0.5-2.5-0.5-4.01c0-7.76,5.75-16.53,13.77-19.78c1.5-0.5,3-0.75,4.26-0.75
			c4.01,0,6.76,3.01,6.76,8.26c0,7.26-5.01,12.77-7.01,20.28h7.26c8.02,0.25,12.27,4.51,12.77,12.52v1.75
			c0,9.26-3.25,17.28-6.76,25.29c-12.77,31.05-31.55,58.34-50.32,85.88L468,896.15c-1.5,2.26-3,6.01-5.51,6.01
			C461.74,902.16,460.99,901.91,460.24,901.16z M515.57,734.15c-5.51,3.76-8.52,7.26-8.52,13.27l0.5,4.01
			C511.81,745.41,513.32,740.66,515.57,734.15z"/>
		<path class="st0" d="M569.15,762.19c-6.76,0-13.27-1-16.77-7.51c-3.76-7.01-3.01-14.02,0.75-20.78c2.26-4.01,5.26-7.26,10.77-6.76
			c3.26,0.25,5.51,1.75,6.26,4.75c1.5,5.01-0.75,8.77-3.5,12.78c-1.76,2-7.02,1.5-5.01,5.26c1.75,3.26,6.26,3,9.76,2.25
			c13.02-3,24.79-7.26,30.55-21.03c1.75-4.51,5.01-11.27,11.52-7.26c6.26,4.01,2,10.02-1.5,13.77c-5.51,6.01-5.51,13.02-3.26,19.53
			c8.51,26.04,0.25,48.07-14.52,69.11c-10.26,14.78-22.03,28.05-35.31,40.07c-0.5,0.5-1,1-1.5,1.5c-2.26,2-5.01,4-7.51,1
			c-2.76-3.26-0.5-5.76,2.25-7.76c11.27-8.02,20.78-18.03,29.3-28.8c8.02-9.76,14.52-20.28,19.03-32.05
			c3.75-10.51,4.5-21.03,1.25-32.05c-1.5-5.26-2.75-10.51-4.5-16.27C588.43,756.68,579.67,761.94,569.15,762.19z"/>
	</g>
</g>
</svg>
