<svg xmlns="http://www.w3.org/2000/svg" viewBox="0 0 200.34 200.34"><defs><style>.cls-1{fill:#333196;}</style></defs><g id="Camada_2" data-name="Camada 2"><g id="Camada_1-2" data-name="Camada 1"><path class="cls-1" d="M92.2,160.48a39.84,39.84,0,0,0,39.85,39.86A39.86,39.86,0,0,0,92.2,160.48Z"/><path class="cls-1" d="M88.31,160.48a20,20,0,0,0-20,20A20,20,0,0,0,88.31,160.48Z"/><path class="cls-1" d="M51.88,137.18a39.87,39.87,0,0,0,0,56.37A39.85,39.85,0,0,0,51.88,137.18Z"/><path class="cls-1" d="M49.13,134.43a20,20,0,0,0-28.31,0A20,20,0,0,0,49.13,134.43Z"/><path class="cls-1" d="M39.86,92.2A39.84,39.84,0,0,0,0,132.05,39.86,39.86,0,0,0,39.86,92.2Z"/><path class="cls-1" d="M39.86,88.31a20,20,0,0,0-20-20A20,20,0,0,0,39.86,88.31Z"/><path class="cls-1" d="M63.16,51.88a39.87,39.87,0,0,0-56.37,0A39.85,39.85,0,0,0,63.16,51.88Z"/><path class="cls-1" d="M65.91,49.13a20,20,0,0,0,0-28.31A20,20,0,0,0,65.91,49.13Z"/><path class="cls-1" d="M108.14,39.86A39.84,39.84,0,0,0,68.29,0,39.86,39.86,0,0,0,108.14,39.86Z"/><path class="cls-1" d="M112,39.86a20,20,0,0,0,20-20A20,20,0,0,0,112,39.86Z"/><path class="cls-1" d="M148.45,63.16a39.85,39.85,0,0,0,0-56.37A39.87,39.87,0,0,0,148.45,63.16Z"/><path class="cls-1" d="M151.21,65.91a20,20,0,0,0,28.31,0A20,20,0,0,0,151.21,65.91Z"/><path class="cls-1" d="M160.48,108.14a39.84,39.84,0,0,0,39.86-39.85A39.86,39.86,0,0,0,160.48,108.14Z"/><path class="cls-1" d="M160.48,112a20,20,0,0,0,20,20A20,20,0,0,0,160.48,112Z"/><path class="cls-1" d="M137.18,148.45a39.85,39.85,0,0,0,56.37,0A39.87,39.87,0,0,0,137.18,148.45Z"/><path class="cls-1" d="M134.43,151.21a20,20,0,0,0,0,28.31A20,20,0,0,0,134.43,151.21Z"/><path class="cls-1" d="M100.17,83.59a20,20,0,0,0,0-28.32A20,20,0,0,0,100.17,83.59Z"/><path class="cls-1" d="M100.17,145.07a20,20,0,0,0,0-28.32A20,20,0,0,0,100.17,145.07Z"/><path class="cls-1" d="M116.75,100.17a20,20,0,0,0,28.32,0A20,20,0,0,0,116.75,100.17Z"/><path class="cls-1" d="M55.27,100.17a20,20,0,0,0,28.32,0A20,20,0,0,0,55.27,100.17Z"/><path class="cls-1" d="M111.9,88.44a20,20,0,0,0,20-20A20,20,0,0,0,111.9,88.44Z"/><path class="cls-1" d="M68.42,131.92a20,20,0,0,0,20-20A20,20,0,0,0,68.42,131.92Z"/><path class="cls-1" d="M111.9,111.9a20,20,0,0,0,20,20A20,20,0,0,0,111.9,111.9Z"/><path class="cls-1" d="M68.42,68.42a20,20,0,0,0,20,20A20,20,0,0,0,68.42,68.42Z"/><circle class="cls-1" cx="100.17" cy="100.17" r="5.23"/></g></g></svg>