<svg width="46" height="69" viewBox="0 0 46 69" fill="none" xmlns="http://www.w3.org/2000/svg">
<path id="Vector" d="M9.50532 7.99443H10.0968V1.01276C10.0968 0.454699 10.5444 2.2448e-07 11.0978 2.2448e-07C11.2298 -8.83689e-05 11.3605 0.0260471 11.4824 0.0769118C11.6044 0.127777 11.7152 0.202373 11.8085 0.296434C11.9018 0.390495 11.9758 0.502177 12.0263 0.625091C12.0768 0.748005 12.1027 0.87974 12.1026 1.01276V7.99456H12.694C13.2552 7.99456 13.7669 8.22757 14.1384 8.59818C14.5063 8.97269 14.7338 9.48493 14.7338 10.0543V11.9765H15.1965C16.1176 11.9765 16.9555 12.3549 17.5622 12.9663C18.1687 13.5776 18.5441 14.4223 18.5441 15.3509V21.2473C18.5442 21.3798 18.5184 21.511 18.4681 21.6334C18.4179 21.7559 18.3442 21.8671 18.2512 21.9608C18.1582 22.0545 18.0478 22.1288 17.9263 22.1795C17.8049 22.2301 17.6747 22.2561 17.5432 22.256C16.9895 22.256 16.5384 21.8051 16.5384 21.2473V15.3509C16.5384 14.9801 16.3869 14.6439 16.1442 14.3954C15.893 14.1416 15.5521 13.9987 15.1965 13.9981H7.0031C6.64741 13.9987 6.3065 14.1416 6.05524 14.3954C5.8033 14.6486 5.66142 14.9923 5.66081 15.3509V16.6387H7.72713C8.28082 16.6387 8.73195 17.0896 8.73195 17.6475C8.73195 18.2055 8.28082 18.6602 7.72713 18.6602H5.66067V20.5633H7.727C8.28069 20.5633 8.73182 21.0141 8.73182 21.5721C8.73182 22.13 8.28069 22.5847 7.727 22.5847H5.66067V24.4878H7.727C8.28069 24.4878 8.73182 24.9388 8.73182 25.4967C8.73182 26.0546 8.28069 26.5093 7.727 26.5093H5.66067V28.4124H7.727C8.28069 28.4124 8.73182 28.8634 8.73182 29.4213C8.7319 29.5544 8.70597 29.6861 8.65551 29.809C8.60504 29.9319 8.53103 30.0436 8.43771 30.1377C8.34438 30.2317 8.23358 30.3063 8.11163 30.3572C7.98968 30.4081 7.85898 30.4342 7.727 30.4341H5.66067V32.3141H16.5384V25.8254C16.5384 25.2673 16.9895 24.8126 17.5432 24.8126C18.0967 24.8126 18.5441 25.2673 18.5441 25.8254V32.4021C22.8891 32.7957 26.3583 34.4848 29.0389 36.5254C32.3032 39.0171 34.396 42.0283 35.4692 43.855C36.4664 45.5553 37.1678 47.4204 37.9525 49.2241C38.1725 49.7362 37.9411 50.3324 37.437 50.5539C36.9287 50.7756 36.3414 50.5423 36.1174 50.0304C35.3554 48.2723 34.6655 46.4306 33.6871 44.7759C32.6899 43.0906 30.7677 40.3431 27.7802 38.0922C25.1791 36.1317 21.7744 34.5459 17.4713 34.3587L3.81416 34.3396C3.57724 34.339 3.34258 34.3861 3.12388 34.4779C2.90519 34.5698 2.70685 34.7046 2.54046 34.8746C2.21046 35.2033 2.00602 35.6618 2.00602 36.1624C2.00602 36.6631 2.21046 37.1179 2.54046 37.4465C2.86644 37.7788 3.31757 37.9852 3.81416 37.9852H18.0247C18.4155 37.9851 18.8025 38.0626 19.1636 38.2134C19.5247 38.3642 19.8527 38.5853 20.129 38.864C20.5231 39.2653 20.8113 39.7736 20.9326 40.3468C21.9866 41.1149 22.9307 42.0625 23.6019 43.167C24.2766 44.2714 24.6823 45.5287 24.6557 46.9272C24.6066 49.7589 23.5563 51.4175 22.1497 52.3804C20.7811 53.3166 19.1279 53.5344 17.7554 53.5344H9.80108C9.30435 53.5344 8.85322 53.7409 8.52323 54.0694C8.19725 54.402 7.99241 54.8567 7.99241 55.3574C7.99241 55.858 8.19725 56.3127 8.52323 56.6452C8.85322 56.9738 9.30435 57.1802 9.80108 57.1802H16.1783C16.4207 57.1802 16.6599 57.272 16.8531 57.4477C16.8644 57.4592 21.4825 61.785 27.219 61.6245C27.6093 61.6131 27.9886 61.8308 28.1628 62.2129L30.5895 67.5744C30.8205 68.0787 30.5971 68.6788 30.0964 68.9082C29.9772 68.9634 29.8483 68.9944 29.7172 68.9993C29.5861 69.0042 29.4553 68.983 29.3324 68.9368C29.2094 68.8906 29.0967 68.8205 29.0008 68.7303C28.9048 68.6401 28.8275 68.5317 28.7732 68.4113L26.6119 63.6421C21.2851 63.5159 16.9665 60.1837 15.8103 59.2017H9.80095C8.7508 59.2017 7.79907 58.7698 7.10525 58.0744C6.41532 57.3789 5.98692 56.4157 5.98692 55.3574C5.98529 54.5694 6.22636 53.8003 6.67685 53.1562C6.43417 53.0187 6.21048 52.8503 6.01714 52.6518C5.73899 52.3744 5.51831 52.0441 5.36794 51.68C5.21757 51.3159 5.1405 50.9253 5.14121 50.5309C5.14121 49.7056 5.47482 48.9564 6.01313 48.4138C6.58179 47.8406 7.33256 47.5311 8.13254 47.5311V43.9848H4.17424C3.7834 43.985 3.39637 43.9074 3.0353 43.7566C2.67423 43.6058 2.34623 43.3847 2.07007 43.106C1.79348 42.8276 1.57409 42.497 1.42445 42.1331C1.27481 41.7692 1.19787 41.3791 1.19803 40.9852C1.19803 40.3814 1.37626 39.8158 1.68352 39.3457C1.48018 39.2083 1.29086 39.0509 1.11834 38.8758C0.428401 38.1803 0 37.2212 0 36.1626C0 35.104 0.428401 34.1411 1.11834 33.4454C1.77431 32.7846 2.66908 32.3602 3.65505 32.3183V15.3513C3.65505 14.4226 4.0305 13.578 4.637 12.9667C5.24364 12.3553 6.08145 11.9769 7.00284 11.9769H7.46159V10.0542C7.46159 9.4848 7.6929 8.97269 8.06047 8.59804C8.43231 8.22757 8.94428 7.99443 9.50532 7.99443ZM37.9374 54.226C37.7174 53.7178 37.9487 53.1217 38.4568 52.8999C38.961 52.6782 39.5526 52.9114 39.7725 53.4235L45.9147 67.5895C46.1383 68.0978 45.907 68.6939 45.3989 68.9156C44.8908 69.1373 44.3033 68.9041 44.0833 68.3959L37.9374 54.226ZM16.8948 51.5128H17.7554C18.8246 51.5128 20.0832 51.3637 21.0314 50.714C21.9413 50.0911 22.6236 48.9447 22.6578 46.8965C22.6766 45.922 22.3848 45.024 21.8958 44.2253C21.5316 43.6293 21.0617 43.0866 20.5309 42.6052C20.414 42.7852 20.2794 42.9529 20.1291 43.1057C19.8529 43.3844 19.5249 43.6055 19.1638 43.7563C18.8027 43.9071 18.4157 43.9847 18.0248 43.9845H14.0665V47.5309H14.0816C14.9006 47.5309 15.6436 47.8671 16.1819 48.4136C16.7241 48.9561 17.058 49.7053 17.058 50.5306C17.058 50.8747 17.001 51.2032 16.8948 51.5128ZM14.0817 49.5523H8.11769C7.85242 49.5523 7.6096 49.6631 7.43551 49.8426C7.34443 49.9321 7.27203 50.0391 7.22254 50.1572C7.17306 50.2754 7.1475 50.4023 7.14737 50.5305C7.14737 50.8019 7.25728 51.0465 7.43551 51.2222C7.52424 51.3141 7.63031 51.3871 7.74747 51.437C7.86463 51.4868 7.99051 51.5126 8.11769 51.5126H14.0817C14.209 51.5126 14.3349 51.4868 14.4521 51.4369C14.5693 51.3871 14.6754 51.3141 14.7642 51.2222C14.8556 51.1322 14.9282 51.0246 14.9777 50.9058C15.0272 50.7869 15.0525 50.6593 15.0522 50.5305C15.0521 50.4023 15.0265 50.2754 14.9771 50.1573C14.9276 50.0391 14.8552 49.9322 14.7642 49.8426C14.6754 49.7509 14.5692 49.678 14.452 49.6281C14.3348 49.5783 14.2089 49.5525 14.0817 49.5523ZM18.0248 40.0065H4.17451C3.90909 40.0065 3.66641 40.1173 3.48818 40.293C3.31396 40.4727 3.20405 40.7171 3.20405 40.9848C3.20405 41.2521 3.31396 41.4969 3.48818 41.6764C3.66641 41.8524 3.90896 41.963 4.17451 41.963H18.0248C18.2902 41.963 18.5326 41.8524 18.7109 41.6764C18.8854 41.4969 18.9954 41.2521 18.9954 40.9848C18.9954 40.7173 18.8854 40.4727 18.7109 40.293C18.5326 40.1174 18.2902 40.0065 18.0248 40.0065ZM12.0608 43.9845H10.1386V47.5309H12.0608V43.9845ZM9.47109 10.0542V11.9763H12.7278V10.0542H9.47109Z" fill="#A680DB"/>
</svg>
