<svg width="139" height="57" viewBox="0 0 139 57" fill="none" xmlns="http://www.w3.org/2000/svg">
<g id="Vector">
<path d="M53.2909 0C53.2909 1.01052 52.8834 1.92977 52.2236 2.59476C51.5639 3.25975 50.6519 3.67048 49.6493 3.67048C49.6493 1.64291 51.2793 0 53.2909 0Z" fill="#9E80D3"/>
<path d="M56.926 3.67048C55.9234 3.67048 55.0114 3.25975 54.3517 2.59476C53.6919 1.92977 53.2844 1.01704 53.2844 0C55.296 0 56.926 1.64291 56.926 3.67048Z" fill="#9E80D3"/>
<path d="M22.9166 3.58573C22.7484 3.58573 22.5867 3.52053 22.4573 3.39666C22.7096 3.1424 23.1235 3.1424 23.3693 3.39666C23.2464 3.52053 23.0783 3.58573 22.9101 3.58573H22.9166Z" fill="#9E80D3"/>
<path d="M23.0718 2.82294C22.9554 2.70559 22.8842 2.54261 22.8842 2.36658C23.24 2.36658 23.531 2.65344 23.531 3.01201C23.3564 3.01201 23.1947 2.94029 23.0718 2.82294Z" fill="#9E80D3"/>
<path d="M23.531 3.77479C23.531 3.95734 23.4599 4.11381 23.3435 4.23768C23.227 4.35503 23.0653 4.42674 22.8842 4.42674C22.8842 4.06817 23.1753 3.77479 23.531 3.77479Z" fill="#9E80D3"/>
<path d="M23.9127 3.56617C24.0055 3.56617 24.0808 3.49028 24.0808 3.39666C24.0808 3.30304 24.0055 3.22715 23.9127 3.22715C23.8198 3.22715 23.7445 3.30304 23.7445 3.39666C23.7445 3.49028 23.8198 3.56617 23.9127 3.56617Z" fill="#9E80D3"/>
<path d="M23.9127 4.85703C23.6604 4.60277 23.6604 4.19204 23.9127 3.93778C24.0356 4.06817 24.1002 4.23116 24.1002 4.40066C24.1002 4.57017 24.0356 4.73316 23.9127 4.86355V4.85703Z" fill="#9E80D3"/>
<path d="M23.9127 2.85554C23.6604 2.60128 23.6604 2.19055 23.9127 1.93629C24.0356 2.06016 24.1002 2.22967 24.1002 2.39918C24.1002 2.56868 24.0356 2.73167 23.9127 2.86206V2.85554Z" fill="#9E80D3"/>
<path d="M24.747 2.82294C24.6306 2.94029 24.4689 3.01201 24.2878 3.01201C24.2878 2.65344 24.5724 2.36658 24.9346 2.36658C24.9346 2.54261 24.857 2.70559 24.747 2.82294Z" fill="#9E80D3"/>
<path d="M24.4754 4.23768C24.359 4.12032 24.2878 3.95734 24.2878 3.77479C24.6436 3.77479 24.9346 4.06165 24.9346 4.42674C24.7535 4.42674 24.5918 4.35503 24.4754 4.23768Z" fill="#9E80D3"/>
<path d="M25.3615 3.39666C25.2386 3.52053 25.0705 3.58573 24.9023 3.58573C24.7341 3.58573 24.5724 3.52053 24.443 3.39666C24.6953 3.1424 25.1093 3.1424 25.3551 3.39666H25.3615Z" fill="#9E80D3"/>
<path d="M52.2236 2.59476C51.5639 3.25975 50.6519 3.67048 49.6493 3.67048C49.6493 1.64291 51.2793 0 53.2909 0C53.2909 1.01052 52.8834 1.92977 52.2236 2.59476Z" fill="#9E80D3"/>
<path d="M54.3581 2.59476C53.6984 1.92977 53.2909 1.01704 53.2909 0C55.3025 0 56.9324 1.64291 56.9324 3.67048C55.9299 3.67048 55.0179 3.25975 54.3581 2.59476Z" fill="#9E80D3"/>
<path d="M24.1002 2.39266C24.1002 2.56216 24.0356 2.72515 23.9127 2.85554C23.6604 2.60128 23.6604 2.19055 23.9127 1.93629C24.0356 2.06016 24.1002 2.22967 24.1002 2.39918V2.39266Z" fill="#9E80D3"/>
<path d="M24.1002 4.39414C24.1002 4.56365 24.0356 4.72664 23.9127 4.85703C23.6604 4.60277 23.6604 4.19204 23.9127 3.93778C24.0356 4.06817 24.1002 4.23116 24.1002 4.40066V4.39414Z" fill="#9E80D3"/>
<path d="M25.3615 3.39666C25.2386 3.52053 25.0705 3.58573 24.9023 3.58573C24.7341 3.58573 24.5724 3.52053 24.443 3.39666C24.6953 3.1424 25.1093 3.1424 25.3551 3.39666H25.3615Z" fill="#9E80D3"/>
<path d="M23.3758 3.39666C23.2529 3.52053 23.0847 3.58573 22.9166 3.58573C22.7484 3.58573 22.5867 3.52053 22.4573 3.39666C22.7096 3.1424 23.1235 3.1424 23.3693 3.39666H23.3758Z" fill="#9E80D3"/>
<path d="M24.9346 2.36658C24.9346 2.54261 24.857 2.70559 24.747 2.82294C24.6306 2.94029 24.4689 3.01201 24.2878 3.01201C24.2878 2.65344 24.5724 2.36658 24.9346 2.36658Z" fill="#9E80D3"/>
<path d="M23.531 3.77479C23.531 3.95734 23.4599 4.11381 23.3435 4.23768C23.227 4.35503 23.0653 4.42674 22.8842 4.42674C22.8842 4.06817 23.1753 3.77479 23.531 3.77479Z" fill="#9E80D3"/>
<path d="M24.9346 4.42674C24.7535 4.42674 24.5918 4.35503 24.4754 4.23768C24.359 4.12032 24.2878 3.95734 24.2878 3.77479C24.6436 3.77479 24.9346 4.06165 24.9346 4.42674Z" fill="#9E80D3"/>
<path d="M23.531 3.01201C23.3564 3.01201 23.1947 2.94029 23.0718 2.82294C22.9554 2.70559 22.8842 2.54261 22.8842 2.36658C23.24 2.36658 23.531 2.65344 23.531 3.01201Z" fill="#9E80D3"/>
<path d="M23.9127 3.56617C24.0055 3.56617 24.0808 3.49028 24.0808 3.39666C24.0808 3.30304 24.0055 3.22715 23.9127 3.22715C23.8198 3.22715 23.7445 3.30304 23.7445 3.39666C23.7445 3.49028 23.8198 3.56617 23.9127 3.56617Z" fill="#9E80D3"/>
<path d="M16.6684 27.4927H0V1.93629H16.6684V4.85703H2.89772V14.4798C2.89772 14.7341 3.09823 14.9362 3.35049 14.9362C3.60275 14.9362 3.80326 14.7341 3.80326 14.4798V14.2777C3.80326 13.9387 3.90028 13.7431 4.09432 13.554C4.28837 13.3585 4.55356 13.2607 4.8899 13.2607H10.763V16.1879H2.89772V24.585H16.6684V27.5058V27.4927Z" fill="white"/>
<path d="M21.0149 1.93629H18.1172V27.4993H21.0149V1.93629Z" fill="white"/>
<path d="M25.3615 6.68249H22.4638V27.4993H25.3615V6.68249Z" fill="white"/>
<path d="M23.2206 31.5479H26.2865V56.7262H23.434V39.9254L17.7227 56.7262H14.618L8.87427 39.8211V56.7262H6.02182V31.5479H9.08772L15.7952 51.4715C15.9116 51.83 15.9763 52.1365 15.9763 52.3712C15.9763 52.4689 15.9504 52.6319 15.9051 52.8732L15.8081 53.2448C15.7499 53.4925 15.931 53.7337 16.1897 53.7337C16.4096 53.7337 16.5778 53.5512 16.5778 53.336C16.5778 53.3034 16.5778 53.2708 16.5649 53.2383L16.4678 52.8666C16.4226 52.6254 16.3967 52.4559 16.3967 52.3646C16.3967 52.1234 16.4549 51.8235 16.5778 51.4649L23.2141 31.5413L23.2206 31.5479Z" fill="white"/>
<path d="M40.5034 22.1989C40.5487 21.6382 40.1024 21.071 39.1451 20.4843C38.1878 19.904 37.0365 19.3042 35.6846 18.6979L34.5592 18.222C33.188 17.6874 32.0043 17.1593 31.0276 16.6312C30.0509 16.1097 29.1971 15.4382 28.4727 14.6232C27.7483 13.8083 27.4378 12.8499 27.5348 11.7547C27.6318 10.7311 28.0264 9.81185 28.7314 8.99691C29.43 8.18197 30.3678 7.54958 31.5386 7.09322C32.7093 6.64337 33.99 6.41519 35.3936 6.41519C37.7092 6.41519 39.5655 6.97587 40.9562 8.09722C42.3468 9.21857 43.2459 10.8354 43.6534 12.9542L41.1567 13.8996C40.5487 10.855 38.647 9.33593 35.4324 9.33593C34.0547 9.33593 32.8775 9.60323 31.9008 10.1443C30.9241 10.6789 30.4325 11.3374 30.4325 12.1198C30.4325 12.6804 30.7689 13.1694 31.448 13.5801C32.1272 13.9908 33.1362 14.4668 34.4945 15.0014L35.9434 15.6207L37.0688 16.1358C38.3948 16.6964 39.4879 17.2115 40.3482 17.6874C41.202 18.1633 41.9264 18.7631 42.5215 19.4933C43.1165 20.2235 43.4076 21.0775 43.4076 22.049C43.4076 23.1703 43.0842 24.1678 42.4309 25.0479C41.7841 25.9281 40.885 26.5996 39.7466 27.0755C38.6147 27.5514 37.334 27.7861 35.911 27.7861C35.6717 27.7861 35.2642 27.76 34.6756 27.7079C32.5993 27.5123 30.8853 26.8799 29.5335 25.8107C28.1816 24.7415 27.2826 23.3659 26.8492 21.6839L29.7469 20.5495C30.135 21.9642 30.7947 23.0269 31.7391 23.744C32.677 24.4612 33.9965 24.8197 35.6846 24.8197C36.9653 24.8197 38.0649 24.572 38.9963 24.07C39.9277 23.5745 40.4258 22.9486 40.4969 22.1924L40.5034 22.1989Z" fill="white"/>
<path d="M40.1153 52.9644C39.0093 53.649 37.8256 53.988 36.5643 53.988C34.8503 53.988 33.4143 53.3947 32.263 52.2082C31.1117 51.0216 30.4325 49.4569 30.245 47.5141C31.0793 48.2117 32.0302 48.7333 33.0974 49.0984C34.1711 49.4569 35.2772 49.6395 36.4155 49.6395C37.8644 49.6395 39.2486 49.3722 40.5551 48.8311C41.8617 48.2899 42.916 47.5206 43.7116 46.5101C44.5136 45.5061 44.9082 44.3391 44.9082 43.0222C44.9082 41.803 44.5266 40.6556 43.7633 39.5864C43.0001 38.5172 41.9781 37.6632 40.6974 37.0308C39.4103 36.3984 38.0326 36.0789 36.5578 36.0789C34.8244 36.0789 33.2526 36.5353 31.8426 37.4415C30.439 38.3542 29.3394 39.5994 28.5438 41.1837C27.7483 42.7614 27.3472 44.5282 27.3472 46.471C27.3472 48.4138 27.7483 50.1741 28.5438 51.7583C29.3459 53.3426 30.4455 54.5878 31.8426 55.5005C33.2462 56.4132 34.8179 56.8696 36.5578 56.8696C38.1749 56.8696 39.6819 56.485 41.0726 55.7157C42.4697 54.9464 43.6016 53.8706 44.4813 52.482L42.6961 50.2132C42.0752 51.3606 41.2149 52.2799 40.1088 52.9644H40.1153ZM32.6188 40.447C33.7248 39.4495 35.0378 38.954 36.5643 38.954C37.5863 38.954 38.5112 39.1366 39.3456 39.4951C40.18 39.8537 40.8397 40.3427 41.3249 40.949C41.81 41.5618 42.0557 42.2464 42.0557 43.0157C42.0557 44.1696 41.5642 45.0563 40.5745 45.6756C39.5849 46.3015 38.356 46.6079 36.8812 46.6079C35.7364 46.6079 34.598 46.4188 33.4531 46.0342C32.3148 45.6495 31.2993 45.1019 30.4196 44.3782C30.7753 42.7484 31.5062 41.4314 32.6123 40.4405L32.6188 40.447Z" fill="white"/>
<path d="M60.7357 10.0074C60.0501 8.93824 59.0604 8.10374 57.7862 7.50395C56.5055 6.90415 54.9985 6.61077 53.2585 6.61077C51.7838 6.61077 50.419 6.85852 49.1642 7.36052C47.9094 7.86252 46.9133 8.54055 46.1889 9.38808C45.4645 10.2421 45.1022 11.1679 45.1022 12.1589V12.7456H48V12.1589C48 11.7221 48.2457 11.3048 48.7244 10.9006C49.2095 10.5029 49.8563 10.1704 50.6648 9.91616C51.4733 9.6619 52.3401 9.53151 53.2521 9.53151C55.0631 9.53151 56.4538 9.90964 57.4175 10.6659C58.3813 11.4222 58.8664 12.4457 58.8664 13.7366V14.7927L54.0476 16.0706C50.8653 16.8985 48.5756 17.8374 47.185 18.887C45.7943 19.9301 45.1022 21.221 45.1022 22.7531C45.1022 24.2851 45.6391 25.4847 46.7128 26.4235C47.7865 27.3623 49.1448 27.8317 50.7877 27.8317C51.538 27.8317 52.3142 27.7209 53.1033 27.5058C54.1899 27.1863 55.2443 26.6778 56.2727 25.9737C57.3011 25.2696 58.1614 24.4546 58.8599 23.5289L59.7137 22.2771C59.8043 22.1533 59.9336 22.0946 60.0565 22.0946C60.2765 22.0946 60.4834 22.2576 60.4834 22.5184C60.4834 22.6031 60.4576 22.6879 60.4123 22.7596L59.9401 23.4506C59.8625 23.5484 59.7396 23.7179 59.5585 23.9657C59.3774 24.2069 59.2157 24.4677 59.0734 24.748C58.9246 25.0284 58.8535 25.2891 58.8535 25.5304V27.5058H61.7512V13.7431C61.7512 12.3284 61.4084 11.0897 60.7163 10.014L60.7357 10.0074ZM58.8729 19.3564C57.6181 20.9341 56.5379 22.1141 55.6323 22.8769C54.7268 23.6462 53.8148 24.1874 52.8963 24.5003C52.1978 24.748 51.5186 24.8719 50.8718 24.8719C50.0245 24.8719 49.3389 24.6828 48.8085 24.3047C48.2781 23.9266 48.0064 23.405 48.0064 22.7531C48.0064 22.0229 48.4721 21.3774 49.4035 20.8168C50.3349 20.2561 51.8873 19.6824 54.0606 19.1021L58.8793 17.8243V19.3629L58.8729 19.3564Z" fill="white"/>
<path d="M61.3114 40.0884C62.0423 41.301 62.4045 42.6245 62.4045 44.0653V56.7262H59.5456V44.0653C59.5456 43.1526 59.3062 42.3181 58.8341 41.5488C58.3554 40.7795 57.7086 40.1732 56.8872 39.7103C56.0657 39.2539 55.1925 39.0257 54.2611 39.0257C53.3297 39.0257 52.4565 39.2539 51.6221 39.7103C50.7877 40.1666 50.1215 40.7664 49.6105 41.5097C49.0931 42.2529 48.8408 43.0417 48.8408 43.8828V56.7262H45.9884V36.2224H48.8408V36.7961C48.8408 37.0373 48.7697 37.2589 48.6274 37.4611C48.4851 37.6632 48.2005 37.9305 47.7736 38.2695L47.3531 38.615C47.2561 38.6932 47.2044 38.8106 47.2044 38.9345C47.2044 39.1822 47.3984 39.3452 47.6119 39.3452C47.7089 39.3452 47.7994 39.3126 47.8835 39.2344L48.4269 38.7389C49.1901 37.6827 49.1383 37.7349 50.3608 37.1025C51.3181 36.607 52.3595 36.281 53.4267 36.1832C55.2248 36.0202 56.8742 36.3658 58.3554 37.2068C59.6038 37.9109 60.5934 38.8693 61.3178 40.0819L61.3114 40.0884Z" fill="white"/>
<path d="M66.1107 27.4927H63.213V6.68249H66.1107V7.26272C66.1107 7.51047 66.0396 7.73213 65.8908 7.94075C65.742 8.14938 65.451 8.42319 65.0176 8.76221L64.5907 9.11426C64.4937 9.1925 64.4355 9.30985 64.4355 9.43372C64.4355 9.68146 64.636 9.85097 64.8494 9.85097C64.9464 9.85097 65.0435 9.81837 65.1211 9.74013L65.6709 9.23813C66.4406 8.16893 66.3888 8.22761 67.6372 7.58218C68.6074 7.08018 69.6617 6.74768 70.7484 6.64989C72.5788 6.4869 74.2476 6.83896 75.7547 7.69301C77.0224 8.41016 78.025 9.38808 78.7624 10.6137C79.4997 11.8394 79.8684 13.189 79.8684 14.6493V27.5058H76.9707V14.6493C76.9707 13.7235 76.7314 12.8695 76.2463 12.0937C75.7676 11.3179 75.1079 10.692 74.2735 10.2291C73.4391 9.76621 72.553 9.53803 71.6151 9.53803C70.6772 9.53803 69.7781 9.77273 68.9308 10.2291C68.0835 10.692 67.3979 11.2983 66.8804 12.0546C66.363 12.8108 66.1042 13.6127 66.1042 14.4668V27.4993L66.1107 27.4927Z" fill="white"/>
<path d="M76.2269 52.9644C75.1208 53.649 73.9371 53.988 72.6758 53.988C70.9618 53.988 69.5259 53.3947 68.3745 52.2082C67.2232 51.0216 66.5505 49.4569 66.363 47.5141C67.1973 48.2117 68.1482 48.7333 69.2154 49.0984C70.2826 49.4569 71.3952 49.6395 72.5336 49.6395C73.9889 49.6395 75.3666 49.3722 76.6732 48.8311C77.9862 48.2899 79.034 47.5206 79.8296 46.5101C80.6316 45.5061 81.0262 44.3391 81.0262 43.0222C81.0262 41.803 80.6446 40.6556 79.8878 39.5864C79.1246 38.5172 78.1026 37.6632 76.8155 37.0308C75.5348 36.3984 74.1506 36.0789 72.6758 36.0789C70.9424 36.0789 69.3706 36.5353 67.9606 37.4415C66.557 38.3542 65.4574 39.5994 64.6618 41.1837C63.8663 42.7614 63.4652 44.5282 63.4652 46.471C63.4652 48.4138 63.8663 50.1741 64.6618 51.7583C65.4574 53.3426 66.557 54.5878 67.9606 55.5005C69.3642 56.4132 70.9359 56.8696 72.6758 56.8696C74.2929 56.8696 75.8 56.485 77.1906 55.7157C78.5812 54.9464 79.7196 53.8706 80.5993 52.482L78.8141 50.2132C78.1932 51.3606 77.3329 52.2799 76.2269 52.9644ZM68.7303 40.447C69.8363 39.4495 71.1494 38.954 72.6758 38.954C73.6978 38.954 74.6228 39.1366 75.4571 39.4951C76.2915 39.8537 76.9513 40.3427 77.4364 40.949C77.9215 41.5618 78.1673 42.2464 78.1673 43.0157C78.1673 44.1696 77.6757 45.0563 76.6861 45.6756C75.6965 46.3015 74.4675 46.6079 72.9863 46.6079C71.8479 46.6079 70.7031 46.4188 69.5647 46.0342C68.4198 45.6495 67.4108 45.1019 66.5311 44.3782C66.8869 42.7484 67.6178 41.4314 68.7238 40.4405L68.7303 40.447Z" fill="white"/>
<path d="M95.0944 6.68249V8.72961C94.3699 8.04506 93.555 7.51047 92.6494 7.1193C91.7439 6.72813 90.806 6.53254 89.8423 6.53254C88.3222 6.53254 86.9122 6.95631 85.6056 7.81036C84.2991 8.66442 83.2642 9.81185 82.488 11.2592C81.7183 12.7065 81.3302 14.2842 81.3302 15.9858C81.3302 17.6874 81.7183 19.2325 82.488 20.6994C83.2577 22.1598 84.2991 23.3203 85.6056 24.1873C86.9122 25.0479 88.3222 25.4782 89.8423 25.4782C91.2458 25.4782 92.6041 25.1718 93.7555 24.3112C94.9585 23.4115 94.5381 23.8809 95.5601 22.6879L96.0064 22.0685C96.0969 21.9512 96.2198 21.8925 96.3427 21.8925C96.5562 21.8925 96.7632 22.0555 96.7632 22.3097C96.7632 22.414 96.7243 22.5184 96.6532 22.5966L96.1875 23.0986C95.8706 23.4376 95.6183 23.8027 95.4113 24.1939C95.2043 24.585 95.1008 24.911 95.1008 25.1783V26.1628C95.1008 26.9386 94.8615 27.6688 94.3958 28.3533C93.9236 29.0313 93.2833 29.5659 92.4748 29.9636C91.6663 30.3548 90.7931 30.5439 89.8487 30.5439C88.6457 30.5439 87.6172 30.244 86.7699 29.6507C85.9226 29.0509 85.5021 28.3272 85.5021 27.4797H82.6044C82.6044 28.6011 82.9214 29.6181 83.5423 30.5308C84.1697 31.4436 85.0429 32.1607 86.1554 32.6823C87.2679 33.2038 88.4969 33.4646 89.8487 33.4646C91.3493 33.4646 92.7141 33.1386 93.9625 32.4932C95.1591 31.8738 96.1163 31.0328 96.8278 29.9767C97.6169 28.8032 97.9986 27.4015 97.9986 25.9932V6.68249H95.0944ZM93.6843 20.7972C92.74 21.9772 91.4593 22.5705 89.8423 22.5705C88.7556 22.5705 87.7854 22.2902 86.9251 21.7295C86.0649 21.1688 85.3987 20.393 84.9329 19.389C84.4608 18.3915 84.2279 17.2571 84.2279 15.9923C84.2279 14.7276 84.4608 13.5997 84.9329 12.6152C85.4051 11.6308 86.0713 10.855 86.9251 10.3008C87.7789 9.74665 88.7556 9.4598 89.8423 9.4598C91.414 9.4598 92.6818 10.0596 93.6455 11.2657C94.6093 12.4718 95.0944 14.0495 95.0944 15.9923C95.0944 17.9351 94.6222 19.6107 93.6843 20.7907V20.7972Z" fill="white"/>
<path d="M88.5228 53.8446H98.8718V56.7262H81.7442L93.4515 39.0975L94.1565 38.0413C94.3247 37.787 94.1436 37.4415 93.8396 37.4415C93.7102 37.4415 93.5873 37.5067 93.5162 37.624L93.2704 38.0217C93.2251 38.0934 93.1345 38.2434 93.0052 38.4716C92.8758 38.6998 92.7335 38.8627 92.5783 38.954C92.423 39.0518 92.2419 39.0975 92.0285 39.0975H81.7506V36.2224H98.8071L87.0998 53.8446L86.3948 54.9007C86.2201 55.155 86.4077 55.5005 86.7117 55.5005C86.841 55.5005 86.9639 55.4353 87.0351 55.318L87.2809 54.9203C87.3262 54.8486 87.4167 54.7051 87.5461 54.4704C87.6754 54.2423 87.8177 54.0793 87.973 53.9815C88.1282 53.8837 88.3093 53.838 88.5228 53.838V53.8446Z" fill="white"/>
<path d="M110.553 52.9644C109.447 53.649 108.263 53.988 107.002 53.988C105.295 53.988 103.859 53.3947 102.701 52.2082C101.55 51.0216 100.877 49.4569 100.689 47.5141C101.524 48.2117 102.475 48.7333 103.542 49.0984C104.609 49.4569 105.722 49.6395 106.86 49.6395C108.315 49.6395 109.693 49.3722 110.999 48.8311C112.313 48.2899 113.36 47.5206 114.156 46.5101C114.952 45.5061 115.353 44.3391 115.353 43.0222C115.353 41.803 114.971 40.6556 114.214 39.5864C113.451 38.5172 112.429 37.6632 111.142 37.0308C109.861 36.3984 108.477 36.0789 107.002 36.0789C105.269 36.0789 103.697 36.5353 102.293 37.4415C100.89 38.3542 99.7902 39.5994 98.9947 41.1837C98.1926 42.7614 97.798 44.5282 97.798 46.471C97.798 48.4138 98.1926 50.1741 98.9947 51.7583C99.7902 53.3426 100.89 54.5878 102.293 55.5005C103.697 56.4132 105.269 56.8696 107.002 56.8696C108.619 56.8696 110.126 56.485 111.517 55.7157C112.908 54.9464 114.046 53.8706 114.926 52.482L113.14 50.2132C112.52 51.3606 111.659 52.2799 110.553 52.9644ZM103.063 40.447C104.169 39.4495 105.482 38.954 107.002 38.954C108.031 38.954 108.956 39.1366 109.79 39.4951C110.624 39.8537 111.284 40.3427 111.769 40.949C112.254 41.5618 112.5 42.2464 112.5 43.0157C112.5 44.1696 112.009 45.0563 111.019 45.6756C110.036 46.3015 108.8 46.6079 107.326 46.6079C106.187 46.6079 105.042 46.4188 103.897 46.0342C102.759 45.6495 101.744 45.1019 100.864 44.3782C101.22 42.7484 101.957 41.4314 103.063 40.4405V40.447Z" fill="white"/>
<path d="M112.028 23.6788C110.902 24.3699 109.699 24.7219 108.425 24.7219C106.685 24.7219 105.23 24.1156 104.059 22.916C102.882 21.7099 102.203 20.1192 102.009 18.1503C102.856 18.8544 103.82 19.3955 104.907 19.7606C105.993 20.1257 107.119 20.3082 108.276 20.3082C109.751 20.3082 111.148 20.0344 112.481 19.4868C113.807 18.9391 114.88 18.1503 115.689 17.1332C116.497 16.1097 116.898 14.9297 116.898 13.5932C116.898 12.3479 116.51 11.1875 115.741 10.1052C114.964 9.02299 113.93 8.1559 112.623 7.51047C111.323 6.86504 109.919 6.53906 108.425 6.53906C106.659 6.53906 105.068 7.00194 103.645 7.92771C102.216 8.85348 101.103 10.1183 100.295 11.7286C99.4798 13.3389 99.0787 15.1252 99.0787 17.0941C99.0787 19.063 99.4798 20.8559 100.295 22.4597C101.103 24.07 102.216 25.3348 103.645 26.2605C105.068 27.1863 106.659 27.6492 108.425 27.6492C110.068 27.6492 111.595 27.258 113.011 26.4757C114.421 25.6999 115.579 24.6046 116.472 23.1899L114.66 20.8885C114.033 22.0555 113.16 22.9878 112.034 23.6853L112.028 23.6788ZM104.415 10.9723C105.54 9.9618 106.873 9.4598 108.419 9.4598C109.46 9.4598 110.398 9.64234 111.245 10.0074C112.086 10.3725 112.759 10.868 113.257 11.4874C113.748 12.1067 114.001 12.8108 114.001 13.5866C114.001 14.7536 113.503 15.6533 112.5 16.2922C111.498 16.9246 110.249 17.2376 108.749 17.2376C107.591 17.2376 106.427 17.042 105.269 16.6573C104.111 16.2662 103.083 15.712 102.19 14.9753C102.552 13.3193 103.296 11.9894 104.415 10.9788V10.9723Z" fill="white"/>
<path d="M120.883 1.93629H117.985V27.4993H120.883V1.93629Z" fill="white"/>
<path d="M119.958 41.5814C119.958 42.129 120.288 42.6115 120.954 43.0157C121.62 43.4264 122.616 43.8958 123.949 44.4174L125.378 45.0302L126.484 45.5322C127.791 46.0864 128.864 46.5949 129.712 47.0578C130.553 47.5272 131.271 48.1204 131.853 48.8376C132.435 49.5547 132.732 50.3957 132.732 51.3541C132.732 52.4559 132.409 53.4404 131.769 54.3009C131.128 55.1615 130.242 55.8265 129.13 56.2959C128.011 56.7653 126.749 57 125.346 57C125.106 57 124.705 56.9739 124.13 56.9283C122.086 56.7327 120.398 56.1133 119.065 55.0572C117.733 54.001 116.853 52.645 116.426 50.989L119.279 49.8742C119.66 51.2628 120.314 52.3125 121.245 53.0231C122.176 53.7337 123.47 54.0858 125.132 54.0858C126.394 54.0858 127.48 53.838 128.399 53.3491C129.311 52.8601 129.809 52.2408 129.88 51.4975C129.925 50.9434 129.485 50.3827 128.541 49.809C127.603 49.2353 126.465 48.6485 125.132 48.0422L124.026 47.5728C122.668 47.0447 121.51 46.5232 120.546 46.0081C119.583 45.4931 118.742 44.8346 118.03 44.0327C117.319 43.2243 117.002 42.2855 117.105 41.2098C117.202 40.2058 117.591 39.2996 118.283 38.4911C118.975 37.6892 119.893 37.0634 121.051 36.62C122.202 36.1767 123.47 35.9551 124.854 35.9551C127.137 35.9551 128.961 36.5092 130.333 37.611C131.697 38.7128 132.59 40.3101 132.991 42.3963L130.533 43.3286C129.938 40.3296 128.056 38.8302 124.899 38.8302C123.541 38.8302 122.383 39.0975 121.42 39.619C120.456 40.1471 119.977 40.799 119.977 41.5618L119.958 41.5814Z" fill="white"/>
<path d="M137.965 10.0074C137.273 8.93824 136.29 8.10374 135.016 7.50395C133.735 6.90415 132.228 6.61077 130.488 6.61077C129.013 6.61077 127.648 6.85852 126.394 7.36052C125.139 7.86252 124.143 8.54055 123.418 9.38808C122.694 10.2421 122.332 11.1679 122.332 12.1589V12.7456H125.229V12.1589C125.229 11.7221 125.469 11.3048 125.954 10.9006C126.439 10.5029 127.086 10.1704 127.894 9.91616C128.703 9.6619 129.569 9.53151 130.481 9.53151C132.293 9.53151 133.683 9.90964 134.647 10.6659C135.611 11.4222 136.096 12.4457 136.096 13.7366V14.7927L131.277 16.0706C128.095 16.8985 125.805 17.8374 124.414 18.887C123.024 19.9301 122.332 21.221 122.332 22.7531C122.332 24.2851 122.868 25.4847 123.942 26.4235C125.016 27.3623 126.374 27.8317 128.017 27.8317C128.767 27.8317 129.544 27.7209 130.339 27.5058C131.426 27.1863 132.48 26.6778 133.509 25.9737C134.537 25.2696 135.404 24.4546 136.102 23.5289L136.956 22.2771C137.047 22.1533 137.17 22.0946 137.299 22.0946C137.519 22.0946 137.726 22.2576 137.726 22.5184C137.726 22.6031 137.7 22.6879 137.648 22.7596L137.182 23.4506C137.105 23.5484 136.982 23.7179 136.801 23.9657C136.62 24.2069 136.458 24.4677 136.316 24.748C136.167 25.0284 136.102 25.2891 136.102 25.5304V27.5058H139V13.7431C139 12.3284 138.657 11.0897 137.965 10.014V10.0074ZM136.102 19.3564C134.847 20.9341 133.761 22.1141 132.862 22.8769C131.956 23.6462 131.044 24.1874 130.126 24.5003C129.427 24.748 128.748 24.8719 128.101 24.8719C127.254 24.8719 126.562 24.6828 126.038 24.3047C125.507 23.9266 125.236 23.405 125.236 22.7531C125.236 22.0229 125.702 21.3774 126.633 20.8168C127.564 20.2561 129.117 19.6824 131.29 19.1021L136.109 17.8243V19.3629L136.102 19.3564Z" fill="white"/>
</g>
</svg>
