<svg width="185" height="112" viewBox="0 0 185 112" fill="none" xmlns="http://www.w3.org/2000/svg">
<g id="Vector">
<path d="M86.8503 49.2383C85.6483 49.2383 84.5574 48.7575 83.7695 47.9728C82.9816 47.1948 82.4934 46.1129 82.4934 44.9209C84.8974 44.9209 86.8503 46.8509 86.8503 49.2383Z" fill="white"/>
<path d="M100.23 32.9435C100.23 35.2041 101.153 37.2476 102.648 38.7268C104.14 40.2061 106.203 41.1243 108.479 41.1243C108.479 36.6065 104.786 32.9435 100.23 32.9435Z" fill="white"/>
<path d="M99.4258 32.9435C98.281 32.9435 97.244 33.4043 96.4966 34.1456C95.7457 34.8902 95.2845 35.9153 95.2845 37.0506C97.574 37.0506 99.4292 35.2108 99.4292 32.9402L99.4258 32.9435Z" fill="white"/>
<path d="M91.8872 28.1586C90.2778 29.7547 89.4697 31.8483 89.4697 33.9419C89.4697 36.0355 90.2744 38.1292 91.8872 39.7252C95.1094 36.5297 95.1094 31.3508 91.8872 28.1553V28.1586Z" fill="white"/>
<path d="M91.3182 27.5943C90.5101 26.7929 89.4495 26.3922 88.3889 26.3922C87.3284 26.3922 86.2678 26.7929 85.4597 27.5943C87.0792 29.2004 89.7021 29.2004 91.3216 27.5943H91.3182Z" fill="white"/>
<path d="M89.399 18.926C87.1196 18.926 85.0591 19.8409 83.5675 21.3235C82.0759 22.8027 81.15 24.8496 81.15 27.1068C85.7055 27.1068 89.399 23.4438 89.399 18.926Z" fill="white"/>
<path d="M89.399 18.128C89.399 16.9927 88.9344 15.9642 88.1869 15.2229C87.4361 14.4783 86.4025 14.0209 85.2577 14.0209C85.2577 16.2915 87.1129 18.1313 89.4024 18.1313L89.399 18.128Z" fill="white"/>
<path d="M94.2205 10.6517C92.6111 9.05563 90.5 8.25425 88.3889 8.25425C86.2779 8.25425 84.1668 9.05229 82.5574 10.6517C85.7796 13.8472 91.0017 13.8472 94.2239 10.6517H94.2205Z" fill="white"/>
<path d="M94.7895 10.0841C95.5976 9.28269 96.0016 8.23088 96.0016 7.17906C96.0016 6.12724 95.5976 5.07543 94.7895 4.27404C93.17 5.88015 93.17 8.48131 94.7895 10.0874V10.0841Z" fill="white"/>
<path d="M103.533 8.18079C103.533 5.92022 102.611 3.87669 101.116 2.39747C99.6211 0.914913 97.5605 0 95.2811 0C95.2811 4.5178 98.9746 8.18079 103.53 8.18079H103.533Z" fill="white"/>
<path d="M104.338 8.18079C105.483 8.18079 106.52 7.71999 107.267 6.97871C108.018 6.23409 108.479 5.20899 108.479 4.0737C106.19 4.0737 104.335 5.91354 104.335 8.18413L104.338 8.18079Z" fill="white"/>
<path d="M111.877 12.9657C113.486 11.3696 114.294 9.27601 114.294 7.1824C114.294 5.08878 113.49 2.99517 111.877 1.39908C108.655 4.5946 108.655 9.77354 111.877 12.9691V12.9657Z" fill="white"/>
<path d="M112.446 13.53C113.254 14.3314 114.314 14.7321 115.375 14.7321C116.436 14.7321 117.496 14.3314 118.304 13.53C116.685 11.9239 114.062 11.9239 112.442 13.53H112.446Z" fill="white"/>
<path d="M114.365 22.1983C116.644 22.1983 118.705 21.2834 120.196 19.8008C121.688 18.3216 122.614 16.2748 122.614 14.0175C118.058 14.0175 114.365 17.6805 114.365 22.1983Z" fill="white"/>
<path d="M114.365 22.9964C114.365 24.1317 114.83 25.1601 115.577 25.9014C116.328 26.646 117.361 27.1035 118.506 27.1035C118.506 24.8329 116.651 22.993 114.362 22.993L114.365 22.9964Z" fill="white"/>
<path d="M109.543 30.4726C111.153 32.0687 113.264 32.8701 115.375 32.8701C117.486 32.8701 119.597 32.072 121.207 30.4726C117.984 27.2771 112.762 27.2771 109.54 30.4726H109.543Z" fill="white"/>
<path d="M108.974 31.0369C108.166 31.8383 107.762 32.8901 107.762 33.9419C107.762 34.9937 108.166 36.0456 108.974 36.8469C110.594 35.2408 110.594 32.6397 108.974 31.0336V31.0369Z" fill="white"/>
<path d="M101.88 17.1563C102.688 16.3549 103.092 15.3031 103.092 14.2513C103.092 13.1995 102.688 12.1476 101.88 11.3463C100.261 12.9524 100.261 15.5535 101.88 17.1596V17.1563Z" fill="white"/>
<path d="M101.88 29.7781C102.688 28.9767 103.092 27.9249 103.092 26.8731C103.092 25.8212 102.688 24.7694 101.88 23.968C100.261 25.5741 100.261 28.1753 101.88 29.7814V29.7781Z" fill="white"/>
<path d="M105.315 20.5622C106.123 21.3635 107.183 21.7642 108.244 21.7642C109.304 21.7642 110.365 21.3635 111.173 20.5622C109.554 18.9561 106.931 18.9561 105.311 20.5622H105.315Z" fill="white"/>
<path d="M92.5909 20.5622C93.399 21.3635 94.4596 21.7642 95.5201 21.7642C96.5807 21.7642 97.6413 21.3635 98.4494 20.5622C96.8299 18.9561 94.207 18.9561 92.5875 20.5622H92.5909Z" fill="white"/>
<path d="M104.308 18.1547C105.453 18.1547 106.49 17.6939 107.237 16.9526C107.988 16.208 108.449 15.1829 108.449 14.0476C106.16 14.0476 104.305 15.8874 104.305 18.158L104.308 18.1547Z" fill="white"/>
<path d="M95.3114 27.0767C96.4561 27.0767 97.4932 26.6159 98.2406 25.8747C98.9915 25.13 99.4527 24.1049 99.4527 22.9697C97.1632 22.9697 95.308 24.8095 95.308 27.0801L95.3114 27.0767Z" fill="white"/>
<path d="M104.308 22.9697C104.308 24.1049 104.772 25.1334 105.52 25.8747C106.271 26.6193 107.304 27.0767 108.449 27.0767C108.449 24.8062 106.594 22.9663 104.305 22.9663L104.308 22.9697Z" fill="white"/>
<path d="M95.3114 14.0442C95.3114 15.1795 95.776 16.208 96.5235 16.9493C97.2743 17.6939 98.308 18.1513 99.4527 18.1513C99.4527 15.8807 97.5976 14.0409 95.308 14.0409L95.3114 14.0442Z" fill="white"/>
<path d="M101.88 21.6374C102.479 21.6374 102.964 21.156 102.964 20.5622C102.964 19.9683 102.479 19.487 101.88 19.487C101.282 19.487 100.796 19.9683 100.796 20.5622C100.796 21.156 101.282 21.6374 101.88 21.6374Z" fill="white"/>
<path d="M5.25243 72.051C4.98644 71.5235 4.60934 71.1161 4.1245 70.8256C3.63966 70.5318 3.08075 70.3882 2.45113 70.3882H0V77.2734H2.44777C3.08412 77.2734 3.64303 77.1298 4.12787 76.8493C4.61271 76.5688 4.98981 76.1681 5.25243 75.6472C5.51842 75.1297 5.64973 74.5353 5.64973 73.8575C5.64973 73.1796 5.51505 72.5719 5.24906 72.051H5.25243ZM4.56894 75.2499C4.37366 75.6473 4.0942 75.9511 3.73057 76.1648C3.36694 76.3785 2.94271 76.4854 2.45113 76.4854H0.794598V71.1729H2.45113C2.93261 71.1729 3.35684 71.2797 3.7171 71.5034C4.08073 71.7205 4.36356 72.0343 4.56221 72.4417C4.76086 72.8457 4.8585 73.3199 4.8585 73.8541C4.8585 74.3884 4.76086 74.8492 4.56557 75.2466L4.56894 75.2499Z" fill="white"/>
<path d="M9.38703 71.9375C9.38703 71.9375 9.40724 71.9509 9.41397 71.9576L9.06044 72.6688C9.04024 72.6554 9.01667 72.6421 8.99647 72.632C8.9931 72.6287 8.983 72.6254 8.97627 72.6187C8.9729 72.6153 8.9628 72.6153 8.95943 72.612C8.90556 72.5853 8.85506 72.5586 8.80119 72.5385C8.74732 72.5152 8.69681 72.4985 8.64294 72.4851C8.5958 72.4684 8.5453 72.4584 8.49816 72.4517C8.48469 72.4484 8.47459 72.4451 8.45776 72.4451C8.39042 72.4317 8.31971 72.4284 8.24564 72.4284C7.98639 72.4284 7.74397 72.4918 7.51165 72.6187C7.27933 72.7422 7.09415 72.9092 6.94937 73.1095C6.80796 73.3132 6.73725 73.5303 6.73725 73.7607V77.2734H5.94265V71.6637H6.73725V71.8206C6.73725 71.8874 6.71705 71.9475 6.67665 72.0043C6.67328 72.0076 6.66991 72.0176 6.65981 72.021C6.65644 72.0277 6.65308 72.0377 6.63961 72.0444C6.61604 72.0778 6.58237 72.1078 6.54197 72.1412C6.5083 72.1646 6.478 72.1946 6.43759 72.2247L6.31975 72.3182C6.31975 72.3182 6.31638 72.3215 6.31638 72.3249C6.29281 72.3482 6.27935 72.3783 6.27935 72.405C6.27935 72.4718 6.33659 72.5185 6.39719 72.5185C6.41066 72.5185 6.42076 72.5185 6.43086 72.5118H6.43423C6.43423 72.5118 6.46116 72.5052 6.47126 72.4918L6.61941 72.3549C6.64634 72.3182 6.66655 72.2881 6.68675 72.2581C6.69011 72.2547 6.69348 72.2447 6.70358 72.2414C6.83153 72.0644 6.86856 72.051 7.15812 71.9041C7.42074 71.7706 7.71366 71.6804 8.00659 71.6537C8.08739 71.647 8.16483 71.6403 8.24227 71.6403C8.54867 71.6403 8.84159 71.6971 9.11431 71.8039C9.20859 71.8407 9.29613 71.8841 9.3803 71.9308L9.38703 71.9375Z" fill="white"/>
<path d="M13.7001 72.5586C13.5149 72.2681 13.2422 72.0444 12.8954 71.8841C12.5419 71.7238 12.1311 71.6437 11.653 71.6437C11.2523 71.6437 10.8786 71.7104 10.5352 71.844C10.1917 71.9809 9.91901 72.1612 9.72036 72.3916C9.52171 72.6254 9.4207 72.8725 9.4207 73.1429V73.2999H10.2153V73.1429C10.2153 73.0227 10.2826 72.9092 10.414 72.8023C10.5486 72.6955 10.7271 72.6053 10.9459 72.5385C11.1681 72.4718 11.4038 72.435 11.653 72.435C12.1513 72.435 12.5318 72.5386 12.7944 72.7389C13.057 72.9426 13.1917 73.2164 13.1917 73.567V73.8508L11.8718 74.1947C10.9998 74.4151 10.3735 74.6689 9.99308 74.9494C9.61262 75.2332 9.4207 75.5805 9.4207 75.9945C9.4207 76.4086 9.56885 76.7291 9.86177 76.9829C10.1581 77.2367 10.5284 77.3635 10.9796 77.3635C11.1816 77.3635 11.3971 77.3301 11.6159 77.2767C11.9122 77.1899 12.2018 77.053 12.4813 76.8627C12.7607 76.669 12.9998 76.452 13.1883 76.2049L13.424 75.8676C13.4476 75.8309 13.4846 75.8209 13.5183 75.8209C13.5789 75.8209 13.6361 75.861 13.6361 75.9344C13.6361 75.9578 13.6327 75.9778 13.6159 75.9979L13.4913 76.1882C13.4711 76.2116 13.4341 76.2616 13.387 76.3251C13.3398 76.3885 13.2927 76.462 13.2523 76.5388C13.2119 76.6122 13.1917 76.6824 13.1917 76.7492V77.2834H13.9863V73.5737C13.9863 73.193 13.892 72.8591 13.7035 72.5686L13.7001 72.5586ZM13.1883 75.0763C12.8449 75.5003 12.5486 75.8175 12.3028 76.0279C12.057 76.2316 11.8045 76.3785 11.5553 76.4653C11.3634 76.5288 11.1782 76.5622 10.9998 76.5622C10.7675 76.5622 10.5789 76.5154 10.4342 76.4086C10.2894 76.3084 10.2153 76.1681 10.2153 75.9912C10.2153 75.7942 10.3432 75.6205 10.5991 75.4703C10.8517 75.3233 11.2759 75.1664 11.8718 75.0095L13.1917 74.6656V75.0796L13.1883 75.0763Z" fill="white"/>
<path d="M15.0671 76.6423C15.1445 76.7191 15.1849 76.8159 15.1849 76.9261C15.1849 77.0296 15.1445 77.1231 15.0671 77.1999C14.993 77.2801 14.8954 77.3201 14.7876 77.3201C14.6799 77.3201 14.5755 77.2801 14.5014 77.2066C14.4206 77.1298 14.3802 77.0396 14.3802 76.9261C14.3802 76.8126 14.4206 76.7158 14.5014 76.6423C14.5789 76.5622 14.6765 76.5221 14.7876 76.5221C14.8987 76.5221 14.993 76.5622 15.0671 76.6423Z" fill="white"/>
<path d="M38.6963 77.2734H18.7707V47.1981H38.6963V50.6341H22.2353V61.957C22.2353 62.2541 22.4777 62.4945 22.7774 62.4945C23.077 62.4945 23.3161 62.2541 23.3161 61.957V61.7165C23.3161 61.3158 23.4339 61.0888 23.6629 60.8617C23.8952 60.6313 24.2083 60.5178 24.6157 60.5178H31.6358V63.9537H22.2353V73.8375H38.6963V77.2734Z" fill="white"/>
<path d="M43.8914 47.1981H40.4269V77.2734H43.8914V47.1981Z" fill="white"/>
<path d="M49.0934 52.7811H45.6254V77.2734H49.0934V52.7811Z" fill="white"/>
<path d="M46.5311 82.0349H50.2045V111.663H46.787V91.902L39.9622 111.663H36.2485L29.3732 91.7717V111.663H25.9591V82.0349H29.6325L37.6525 105.482C37.7939 105.906 37.868 106.26 37.868 106.541C37.868 106.654 37.8411 106.851 37.7838 107.132L37.6761 107.572C37.5986 107.866 37.8209 108.147 38.1239 108.147C38.3865 108.147 38.5885 107.933 38.5885 107.686C38.5885 107.649 38.5852 107.609 38.5751 107.572L38.4673 107.132C38.4067 106.851 38.3831 106.654 38.3831 106.541C38.3831 106.26 38.4505 105.906 38.5953 105.482L46.5345 82.0349H46.5311Z" fill="white"/>
<path d="M67.2042 71.0426C67.2614 70.3848 66.7193 69.7103 65.5779 69.0225C64.4365 68.3346 63.0595 67.6334 61.44 66.9189L60.0999 66.3612C58.4535 65.7301 57.0427 65.1091 55.8744 64.4913C54.7061 63.8769 53.6893 63.0889 52.8206 62.1306C51.9553 61.1723 51.5782 60.047 51.696 58.7581C51.8105 57.5527 52.2886 56.4741 53.1236 55.5125C53.9586 54.5542 55.0798 53.8062 56.4805 53.2753C57.8811 52.7444 59.4198 52.4806 61.0965 52.4806C63.8709 52.4806 66.083 53.1384 67.7429 54.4573C69.4028 55.7796 70.4802 57.6829 70.9751 60.1739L67.9819 61.2891C67.2614 57.7063 64.9786 55.9165 61.1369 55.9165C59.4939 55.9165 58.0831 56.2337 56.9148 56.8648C55.7465 57.4959 55.1606 58.2673 55.1606 59.1855C55.1606 59.8433 55.5613 60.4143 56.3727 60.9051C57.1808 61.3893 58.3962 61.9503 60.0124 62.578L61.7463 63.3093L63.0898 63.9103C64.6756 64.5681 65.9853 65.1758 67.0089 65.7368C68.0358 66.2944 68.9045 67.0023 69.6082 67.8605C70.3152 68.7186 70.6721 69.7237 70.6721 70.869C70.6721 72.1913 70.2782 73.3633 69.5038 74.3951C68.7226 75.4269 67.652 76.2216 66.2985 76.7792C64.9382 77.3368 63.4063 77.614 61.7059 77.614C61.413 77.614 60.9248 77.5873 60.2312 77.5305C57.7464 77.3001 55.696 76.5588 54.0765 75.2966C52.457 74.0345 51.393 72.4183 50.8711 70.4383L54.3357 69.1093C54.797 70.7688 55.5949 72.0243 56.7195 72.8658C57.8441 73.7106 59.4198 74.1346 61.44 74.1346C62.9685 74.1346 64.2951 73.8408 65.4028 73.2498C66.5173 72.6621 67.1166 71.9242 67.2042 71.036V71.0426Z" fill="white"/>
<path d="M66.7395 107.242C65.4163 108.043 64.0022 108.447 62.4938 108.447C60.4467 108.447 58.7329 107.749 57.3525 106.35C55.972 104.958 55.1707 103.115 54.9384 100.831C55.935 101.649 57.0764 102.267 58.3558 102.694C59.6353 103.115 60.9585 103.328 62.3221 103.328C64.0594 103.328 65.7059 103.011 67.2749 102.377C68.8371 101.739 70.0964 100.831 71.0526 99.6453C72.0054 98.4566 72.4802 97.0909 72.4802 95.5382C72.4802 94.1024 72.0223 92.7534 71.1166 91.4946C70.2041 90.2424 68.9819 89.2374 67.4432 88.4927C65.9079 87.7448 64.2581 87.3742 62.4904 87.3742C60.413 87.3742 58.5343 87.9084 56.8575 88.9803C55.1774 90.0521 53.861 91.5213 52.9115 93.3845C51.9553 95.2444 51.4839 97.318 51.4839 99.6053C51.4839 101.893 51.9586 103.966 52.9115 105.829C53.8643 107.689 55.1774 109.158 56.8575 110.23C58.5343 111.302 60.413 111.836 62.4904 111.836C64.4264 111.836 66.2277 111.386 67.891 110.484C69.5543 109.579 70.9112 108.314 71.965 106.674L69.8304 104.01C69.093 105.365 68.0627 106.447 66.7362 107.248L66.7395 107.242ZM57.7767 92.5097C59.0999 91.341 60.6723 90.7567 62.4938 90.7567C63.716 90.7567 64.8271 90.9704 65.8204 91.3911C66.817 91.8118 67.6048 92.3861 68.194 93.104C68.7732 93.822 69.0694 94.6333 69.0694 95.5382C69.0694 96.8906 68.4769 97.9391 67.2951 98.6703C66.1133 99.4049 64.6419 99.7689 62.8776 99.7689C61.514 99.7689 60.1437 99.5452 58.7801 99.0944C57.4165 98.6403 56.2044 97.9958 55.1539 97.1477C55.5815 95.2277 56.4569 93.6817 57.7767 92.5097Z" fill="white"/>
<path d="M83.7695 47.9728C82.9816 47.1948 82.4934 46.1129 82.4934 44.9209C84.8974 44.9209 86.8503 46.8509 86.8503 49.2383C85.6483 49.2383 84.5574 48.7575 83.7695 47.9728Z" fill="white"/>
<path d="M91.3956 56.6912C90.5741 55.429 89.3957 54.4507 87.8637 53.7495C86.3351 53.0482 84.5271 52.6976 82.4463 52.6976C80.6854 52.6976 79.0524 52.9915 77.5508 53.5758C76.0491 54.1635 74.8673 54.9582 73.9986 55.9599C73.1333 56.965 72.699 58.0502 72.699 59.2256V59.9168H76.1636V59.2256C76.1636 58.7113 76.4498 58.2172 77.0289 57.743C77.6046 57.2689 78.3757 56.8849 79.3454 56.5843C80.3117 56.2838 81.3453 56.1336 82.4429 56.1336C84.6079 56.1336 86.2711 56.5777 87.426 57.4659C88.5809 58.3541 89.16 59.5528 89.16 61.0721V62.3209L83.3992 63.8235C79.5844 64.7985 76.8505 65.9038 75.1906 67.1325C73.5307 68.3647 72.7024 69.884 72.7024 71.6904C72.7024 73.4969 73.3421 74.906 74.6283 76.0079C75.9111 77.1131 77.5339 77.6607 79.5036 77.6607C80.3992 77.6607 81.3217 77.5338 82.278 77.2767C83.5776 76.9027 84.8402 76.3017 86.0658 75.4703C87.2913 74.6422 88.325 73.6839 89.1634 72.592L90.1903 71.1228C90.2946 70.9692 90.4495 70.9057 90.6044 70.9057C90.8637 70.9057 91.1162 71.0994 91.1162 71.4066C91.1162 71.5068 91.0825 71.6069 91.0286 71.6871L90.4664 72.5052C90.3822 72.622 90.2273 72.8224 90.0118 73.1062C89.793 73.39 89.5977 73.7006 89.426 74.0311C89.2576 74.3617 89.1667 74.6689 89.1667 74.9561V77.2767H92.6313V61.0754C92.6313 59.4159 92.2239 57.9567 91.3956 56.6945V56.6912ZM89.1634 67.6868C87.6617 69.5501 86.3688 70.9324 85.2846 71.834C84.2038 72.7389 83.1096 73.3767 82.012 73.744C81.1736 74.0345 80.3689 74.1747 79.5878 74.1747C78.5743 74.1747 77.7528 73.9543 77.1198 73.5136C76.4835 73.0695 76.167 72.4584 76.167 71.6871C76.167 70.8289 76.7225 70.0676 77.8336 69.4065C78.9413 68.752 80.7999 68.0775 83.3992 67.3897L89.16 65.8837V67.6868H89.1634Z" fill="white"/>
<path d="M92.0892 92.089C92.9545 93.5148 93.3889 95.0708 93.3889 96.767V111.663H89.9748V96.767C89.9748 95.6952 89.6886 94.7068 89.1196 93.8052C88.5472 92.9004 87.7762 92.1825 86.793 91.6449C85.8133 91.1106 84.7695 90.8435 83.6584 90.8435C82.5473 90.8435 81.4968 91.114 80.5002 91.6449C79.5036 92.1825 78.6989 92.8903 78.0861 93.7618C77.4733 94.6367 77.1669 95.5683 77.1669 96.5567V111.666H73.7529V87.5444H77.1669V88.219C77.1669 88.5028 77.0828 88.7666 76.911 89.007C76.7393 89.2441 76.3993 89.5613 75.8875 89.9586L75.3858 90.3626C75.2714 90.4561 75.2074 90.593 75.2074 90.7366C75.2074 91.0204 75.4464 91.2141 75.6922 91.2141C75.8 91.2141 75.9144 91.1774 76.0121 91.0906L76.6653 90.5029C77.5777 89.2607 77.5171 89.3275 78.9817 88.5796C80.1231 87.9986 81.3655 87.6112 82.645 87.5044C84.8032 87.314 86.7661 87.7181 88.5438 88.7098C90.0388 89.5412 91.2172 90.6699 92.0859 92.0956L92.0892 92.089Z" fill="white"/>
<path d="M94.3653 77.2734V52.7811H97.8299V53.469C97.8299 53.7595 97.7457 54.0233 97.5706 54.2637C97.3955 54.5074 97.0521 54.8313 96.5302 55.232L96.0184 55.6461C95.904 55.7395 95.8366 55.8764 95.8366 56.0234C95.8366 56.3172 96.0791 56.5142 96.3316 56.5142C96.4461 56.5142 96.5639 56.4741 96.6582 56.3873L97.3181 55.793C98.244 54.5308 98.1834 54.5976 99.6716 53.8429C100.83 53.2486 102.092 52.8579 103.389 52.7477C105.577 52.5574 107.574 52.9648 109.375 53.9698C110.894 54.818 112.092 55.9599 112.971 57.4058C113.853 58.8549 114.294 60.4377 114.294 62.154V77.2767H110.83V62.154C110.83 61.0654 110.537 60.0637 109.964 59.1454C109.385 58.2305 108.601 57.4993 107.601 56.9516C106.604 56.4107 105.544 56.1369 104.419 56.1369C103.294 56.1369 102.224 56.4107 101.214 56.9516C100.2 57.4993 99.3888 58.2138 98.7659 59.0987C98.1464 59.9869 97.8332 60.9319 97.8332 61.9369V77.2734H94.3653Z" fill="white"/>
<path d="M109.927 107.242C108.604 108.043 107.187 108.447 105.682 108.447C103.634 108.447 101.921 107.749 100.54 106.35C99.1598 104.958 98.3551 103.115 98.1262 100.831C99.1228 101.649 100.261 102.267 101.54 102.694C102.823 103.115 104.146 103.328 105.513 103.328C107.247 103.328 108.897 103.011 110.466 102.377C112.028 101.739 113.287 100.831 114.244 99.6453C115.197 98.4566 115.671 97.0909 115.671 95.5382C115.671 94.1024 115.213 92.7534 114.304 91.4946C113.392 90.2424 112.17 89.2374 110.638 88.4927C109.099 87.7448 107.453 87.3742 105.685 87.3742C103.608 87.3742 101.729 87.9084 100.052 88.9803C98.3719 90.0521 97.0555 91.5213 96.0993 93.3845C95.1464 95.2444 94.6717 97.318 94.6717 99.6053C94.6717 101.893 95.1498 103.966 96.0993 105.829C97.0555 107.689 98.3719 109.158 100.052 110.23C101.729 111.302 103.608 111.836 105.685 111.836C107.621 111.836 109.419 111.386 111.082 110.484C112.749 109.579 114.106 108.314 115.16 106.674L113.025 104.01C112.284 105.365 111.257 106.447 109.931 107.248L109.927 107.242ZM100.964 92.5097C102.288 91.341 103.86 90.7567 105.682 90.7567C106.904 90.7567 108.015 90.9704 109.008 91.3911C110.005 91.8118 110.793 92.3861 111.375 93.104C111.958 93.822 112.25 94.6333 112.25 95.5382C112.25 96.8906 111.658 97.9391 110.483 98.6703C109.301 99.4049 107.83 99.7689 106.065 99.7689C104.702 99.7689 103.331 99.5452 101.968 99.0944C100.604 98.6403 99.3921 97.9958 98.3416 97.1477C98.7659 95.2277 99.6413 93.6817 100.964 92.5097Z" fill="white"/>
<path d="M132.489 52.7811V55.1853C131.624 54.3872 130.651 53.7561 129.567 53.2987C128.486 52.8379 127.365 52.6075 126.21 52.6075C124.388 52.6075 122.701 53.1083 121.143 54.1134C119.58 55.1185 118.341 56.4708 117.415 58.1737C116.493 59.88 116.032 61.7366 116.032 63.74C116.032 65.7435 116.493 67.5633 117.415 69.2796C118.341 70.9992 119.58 72.3683 121.143 73.3833C122.701 74.4018 124.388 74.9093 126.21 74.9093C127.883 74.9093 129.513 74.552 130.887 73.5369C132.328 72.4718 131.829 73.0294 133.048 71.627L133.583 70.899C133.688 70.7588 133.836 70.6954 133.981 70.6954C134.237 70.6954 134.486 70.889 134.486 71.1929C134.486 71.3164 134.439 71.4366 134.348 71.5301L133.789 72.1212C133.415 72.5219 133.105 72.9526 132.856 73.41C132.614 73.8675 132.489 74.2548 132.489 74.5687V75.7274C132.489 76.6423 132.21 77.5005 131.647 78.3052C131.085 79.1032 130.314 79.7343 129.351 80.1951C128.378 80.6526 127.334 80.8829 126.21 80.8829C124.765 80.8829 123.536 80.529 122.526 79.8311C121.513 79.1299 121.011 78.2785 121.011 77.2734H117.543C117.543 78.589 117.92 79.7877 118.671 80.8596C119.419 81.9348 120.459 82.7796 121.789 83.3973C123.116 84.0117 124.59 84.3222 126.21 84.3222C127.998 84.3222 129.637 83.9416 131.126 83.1836C132.56 82.4523 133.701 81.464 134.553 80.2218C135.499 78.8461 135.954 77.1932 135.954 75.527V52.7878H132.489V52.7811ZM130.802 69.3864C129.678 70.7755 128.146 71.47 126.21 71.47C124.91 71.47 123.745 71.1395 122.722 70.4817C121.698 69.8239 120.904 68.9089 120.341 67.7302C119.779 66.5582 119.496 65.2259 119.496 63.7367C119.496 62.2475 119.779 60.9218 120.341 59.7632C120.904 58.6045 121.698 57.6963 122.722 57.0385C123.745 56.3773 124.91 56.0467 126.21 56.0467C128.085 56.0467 129.604 56.758 130.755 58.1737C131.913 59.5895 132.489 61.4461 132.489 63.74C132.489 66.034 131.927 68.0007 130.802 69.3898V69.3864Z" fill="white"/>
<path d="M124.627 108.277H137.004V111.663H116.52L130.52 90.927L131.361 89.6848C131.567 89.3843 131.348 88.9769 130.984 88.9769C130.826 88.9769 130.681 89.0571 130.6 89.1906L130.304 89.6548C130.247 89.7382 130.142 89.9152 129.984 90.1857C129.826 90.4561 129.658 90.6431 129.472 90.7567C129.287 90.8702 129.068 90.927 128.809 90.927H116.52V87.5411H136.92L122.924 108.277L122.079 109.519C121.877 109.82 122.092 110.227 122.459 110.227C122.614 110.227 122.759 110.147 122.843 110.013L123.136 109.549C123.193 109.466 123.301 109.289 123.456 109.022C123.614 108.751 123.782 108.561 123.971 108.447C124.156 108.334 124.375 108.28 124.631 108.28L124.627 108.277Z" fill="white"/>
<path d="M150.98 107.242C149.657 108.043 148.24 108.447 146.735 108.447C144.688 108.447 142.97 107.749 141.593 106.35C140.213 104.958 139.408 103.115 139.179 100.831C140.176 101.649 141.314 102.267 142.593 102.694C143.876 103.115 145.196 103.328 146.566 103.328C148.3 103.328 149.95 103.011 151.512 102.377C153.078 101.739 154.337 100.831 155.29 99.6453C156.246 98.4566 156.718 97.0909 156.718 95.5382C156.718 94.1024 156.263 92.7534 155.354 91.4946C154.442 90.2424 153.219 89.2374 151.687 88.4927C150.149 87.7448 148.496 87.3742 146.735 87.3742C144.657 87.3742 142.779 87.9084 141.098 88.9803C139.422 90.0521 138.105 91.5213 137.152 93.3845C136.2 95.2444 135.725 97.318 135.725 99.6053C135.725 101.893 136.203 103.966 137.152 105.829C138.109 107.689 139.425 109.158 141.098 110.23C142.779 111.302 144.657 111.836 146.735 111.836C148.671 111.836 150.469 111.386 152.132 110.484C153.795 109.579 155.155 108.314 156.209 106.674L154.075 104.01C153.334 105.365 152.3 106.447 150.98 107.248V107.242ZM142.018 92.5097C143.341 91.341 144.913 90.7567 146.735 90.7567C147.957 90.7567 149.068 90.9704 150.061 91.3911C151.058 91.8118 151.846 92.3861 152.428 93.104C153.011 93.822 153.304 94.6333 153.304 95.5382C153.304 96.8906 152.711 97.9391 151.536 98.6703C150.354 99.4049 148.879 99.7689 147.119 99.7689C145.752 99.7689 144.385 99.5452 143.021 99.0944C141.654 98.6403 140.445 97.9958 139.395 97.1477C139.819 95.2277 140.694 93.6817 142.018 92.5097Z" fill="white"/>
<path d="M152.741 72.7856C151.398 73.6004 149.96 74.0111 148.428 74.0111C146.351 74.0111 144.61 73.2999 143.21 71.8841C141.809 70.4683 140.991 68.5951 140.762 66.2744C141.775 67.1058 142.927 67.7369 144.226 68.1643C145.526 68.5917 146.869 68.8121 148.26 68.8121C150.021 68.8121 151.698 68.4882 153.283 67.8438C154.869 67.196 156.149 66.2744 157.118 65.0723C158.085 63.8669 158.566 62.4778 158.566 60.9051C158.566 59.4426 158.105 58.0736 157.182 56.8014C156.26 55.5258 155.017 54.5074 153.458 53.7495C151.9 52.9915 150.223 52.6108 148.432 52.6108C146.324 52.6108 144.418 53.1584 142.715 54.2436C141.011 55.3322 139.674 56.8214 138.708 58.7113C137.742 60.6013 137.253 62.7049 137.253 65.0256C137.253 67.3463 137.738 69.4499 138.708 71.3398C139.674 73.2297 141.011 74.719 142.715 75.8075C144.418 76.8961 146.321 77.4403 148.432 77.4403C150.395 77.4403 152.226 76.9829 153.913 76.0646C155.6 75.1497 156.98 73.8608 158.051 72.198L155.886 69.4933C155.132 70.8657 154.088 71.9609 152.745 72.7823L152.741 72.7856ZM143.644 57.8332C144.987 56.6444 146.583 56.0467 148.428 56.0467C149.671 56.0467 150.795 56.2638 151.809 56.6945C152.822 57.1253 153.623 57.7029 154.213 58.4342C154.805 59.1655 155.098 59.9869 155.098 60.9085C155.098 62.2808 154.499 63.3427 153.3 64.0873C152.102 64.8286 150.607 65.2026 148.819 65.2026C147.432 65.2026 146.044 64.9722 144.657 64.5147C143.273 64.0572 142.045 63.3961 140.977 62.5346C141.412 60.5879 142.297 59.0219 143.64 57.8332H143.644Z" fill="white"/>
<path d="M163.337 47.1981H159.869V77.2734H163.337V47.1981Z" fill="white"/>
<path d="M162.223 93.842C162.223 94.4931 162.623 95.0574 163.418 95.5349C164.216 96.0157 165.411 96.5667 167.004 97.1844L168.707 97.9023L170.031 98.4967C171.596 99.1478 172.886 99.7455 173.892 100.296C174.906 100.847 175.754 101.545 176.455 102.393C177.152 103.242 177.498 104.227 177.498 105.355C177.498 106.651 177.115 107.809 176.344 108.825C175.579 109.84 174.525 110.624 173.185 111.172C171.849 111.723 170.34 112 168.664 112C168.381 112 167.896 111.973 167.216 111.917C164.768 111.686 162.748 110.958 161.155 109.713C159.559 108.471 158.509 106.878 157.997 104.931L161.411 103.622C161.866 105.255 162.65 106.494 163.758 107.325C164.866 108.157 166.418 108.574 168.411 108.574C169.916 108.574 171.219 108.284 172.313 107.706C173.411 107.128 174 106.4 174.088 105.525C174.145 104.874 173.61 104.213 172.485 103.535C171.364 102.861 170.004 102.17 168.411 101.465L167.088 100.914C165.465 100.293 164.081 99.6821 162.926 99.071C161.778 98.4633 160.771 97.6886 159.92 96.747C159.064 95.7987 158.697 94.6901 158.812 93.4213C158.926 92.2359 159.394 91.174 160.219 90.2257C161.041 89.2808 162.145 88.5462 163.526 88.0253C164.903 87.5044 166.421 87.2439 168.068 87.2439C170.802 87.2439 172.983 87.8951 174.616 89.1906C176.253 90.4862 177.313 92.3628 177.798 94.8203L174.852 95.9189C174.145 92.3928 171.892 90.6264 168.111 90.6264C166.489 90.6264 165.105 90.9403 163.95 91.5581C162.795 92.1791 162.223 92.9438 162.223 93.842Z" fill="white"/>
<path d="M183.761 56.6912C182.939 55.429 181.761 54.4507 180.232 53.7495C178.7 53.0482 176.896 52.6976 174.815 52.6976C173.054 52.6976 171.421 52.9915 169.919 53.5758C168.418 54.1635 167.236 54.9582 166.367 55.9599C165.495 56.965 165.068 58.0502 165.068 59.2256V59.9168H168.532V59.2256C168.532 58.7113 168.818 58.2172 169.398 57.743C169.973 57.2689 170.744 56.8849 171.714 56.5843C172.68 56.2838 173.714 56.1336 174.812 56.1336C176.977 56.1336 178.636 56.5777 179.795 57.4659C180.95 58.3541 181.529 59.5528 181.529 61.0721V62.3209L175.768 63.8235C171.953 64.7985 169.219 65.9038 167.559 67.1325C165.896 68.3647 165.071 69.884 165.071 71.6904C165.071 73.4969 165.711 74.906 166.997 76.0079C168.28 77.1131 169.903 77.6607 171.872 77.6607C172.768 77.6607 173.69 77.5338 174.647 77.2767C175.946 76.9027 177.209 76.3017 178.434 75.4703C179.66 74.6422 180.694 73.6839 181.532 72.592L182.559 71.1228C182.663 70.9692 182.818 70.9057 182.973 70.9057C183.232 70.9057 183.485 71.0994 183.485 71.4066C183.485 71.5068 183.451 71.6069 183.397 71.6871L182.835 72.5052C182.751 72.622 182.596 72.8224 182.381 73.1062C182.162 73.39 181.966 73.7006 181.795 74.0311C181.62 74.3617 181.535 74.6689 181.535 74.9561V77.2767H185V61.0754C185 59.4159 184.586 57.9567 183.764 56.6945L183.761 56.6912ZM181.529 67.6868C180.027 69.5501 178.734 70.9324 177.65 71.834C176.569 72.7389 175.475 73.3767 174.377 73.744C173.539 74.0345 172.734 74.1747 171.953 74.1747C170.94 74.1747 170.118 73.9543 169.485 73.5136C168.849 73.0695 168.532 72.4584 168.532 71.6871C168.532 70.8289 169.088 70.0676 170.199 69.4065C171.307 68.752 173.165 68.0775 175.764 67.3897L181.525 65.8837V67.6868H181.529Z" fill="white"/>
<path d="M81.2207 47.9728C80.4329 48.7542 79.3454 49.2383 78.1434 49.2383C78.1434 46.8542 80.0894 44.9209 82.4968 44.9209C82.4968 46.1129 82.012 47.1948 81.2207 47.9728Z" fill="white"/>
<path d="M46.1709 49.1415C45.9756 49.1415 45.7769 49.0647 45.6254 48.9178C45.9285 48.6173 46.42 48.6173 46.7197 48.9178C46.5715 49.0647 46.3729 49.1415 46.1742 49.1415H46.1709Z" fill="white"/>
<path d="M46.9082 49.3652C46.9082 49.5789 46.8207 49.7659 46.6827 49.9062C46.5412 50.0431 46.3493 50.1299 46.1372 50.1299C46.1372 49.7058 46.4806 49.3619 46.9116 49.3619L46.9082 49.3652Z" fill="white"/>
<path d="M46.3628 48.2399C46.2214 48.103 46.1372 47.9094 46.1372 47.699C46.5614 47.699 46.9116 48.0429 46.9116 48.467C46.6961 48.467 46.5042 48.3835 46.3662 48.2433L46.3628 48.2399Z" fill="white"/>
<path d="M47.3628 50.6341C47.0597 50.3369 47.0597 49.8527 47.3628 49.5489C47.5109 49.6958 47.585 49.8928 47.585 50.0898C47.585 50.2868 47.5109 50.4838 47.3628 50.6307V50.6341Z" fill="white"/>
<path d="M48.0395 49.9062C47.9015 49.7659 47.8139 49.5756 47.8139 49.3652C48.2415 49.3652 48.5883 49.7058 48.5883 50.1332C48.3729 50.1332 48.1843 50.0464 48.0429 49.9095L48.0395 49.9062Z" fill="white"/>
<path d="M48.3594 48.2399C48.2213 48.3802 48.0261 48.4637 47.8139 48.4637C47.8139 48.0429 48.1607 47.6957 48.5883 47.6957C48.5883 47.9094 48.5042 48.0997 48.3628 48.2366L48.3594 48.2399Z" fill="white"/>
<path d="M49.0967 48.9144C48.9419 49.0614 48.7432 49.1382 48.5513 49.1382C48.3594 49.1382 48.154 49.0614 48.0059 48.9144C48.3055 48.6139 48.7937 48.6139 49.1001 48.9144H49.0967Z" fill="white"/>
<path d="M47.3628 48.7141C47.4705 48.7141 47.5614 48.8009 47.5614 48.9144C47.5614 49.028 47.4739 49.1148 47.3628 49.1148C47.2517 49.1148 47.1608 49.028 47.1608 48.9144C47.1608 48.8009 47.2483 48.7141 47.3628 48.7141Z" fill="white"/>
<path d="M47.3628 48.28C47.0597 47.9795 47.0597 47.4987 47.3628 47.1948C47.5109 47.3417 47.585 47.5387 47.585 47.7357C47.585 47.9327 47.5109 48.1297 47.3628 48.2767V48.28Z" fill="white"/>
</g>
</svg>
