<svg width="79" height="79" viewBox="0 0 79 79" fill="none" xmlns="http://www.w3.org/2000/svg">
<g id="Vector">
<path d="M36.3541 63.2866C36.3541 67.6292 38.1084 71.5602 40.9565 74.3975C43.8047 77.2456 47.7357 79 52.0674 79C52.0674 70.3149 45.0284 63.2866 36.3541 63.2866Z" fill="#E8DBCF"/>
<path d="M34.8271 63.2866C32.6504 63.2866 30.6687 64.1746 29.2392 65.6041C27.8097 67.0336 26.9217 69.0045 26.9217 71.192C31.2859 71.192 34.8163 67.6617 34.8163 63.2975L34.8271 63.2866Z" fill="#E8DBCF"/>
<path d="M20.4566 54.1034C17.3919 57.1681 15.8541 61.1966 15.8541 65.2143C15.8541 69.2319 17.3919 73.2605 20.4566 76.3252C26.5968 70.1849 26.5968 60.2328 20.4566 54.0925V54.1034Z" fill="#E8DBCF"/>
<path d="M19.3737 53.0096C17.8359 51.4718 15.8108 50.6921 13.7857 50.6921C11.7607 50.6921 9.7464 51.461 8.19781 53.0096C11.2842 56.096 16.2765 56.096 19.3629 53.0096H19.3737Z" fill="#E8DBCF"/>
<path d="M15.7134 36.3541C11.3708 36.3541 7.43975 38.1084 4.60247 40.9565C1.75435 43.8047 0 47.7357 0 52.0783C8.68513 52.0783 15.7134 45.0392 15.7134 36.3649V36.3541Z" fill="#E8DBCF"/>
<path d="M15.7134 34.8271C15.7134 32.6504 14.8254 30.6687 13.3959 29.2392C11.9664 27.8097 9.99548 26.9217 7.80795 26.9217C7.80795 31.2859 11.3383 34.8163 15.7025 34.8163L15.7134 34.8271Z" fill="#E8DBCF"/>
<path d="M24.9075 20.4566C21.8428 17.3919 17.8143 15.8541 13.7966 15.8541C9.77889 15.8541 5.75038 17.3919 2.68568 20.4566C8.82591 26.5968 18.7781 26.5968 24.9183 20.4566H24.9075Z" fill="#E8DBCF"/>
<path d="M25.9904 19.3737C27.5282 17.8359 28.3079 15.8108 28.3079 13.7857C28.3079 11.7607 27.539 9.7464 25.9904 8.19781C22.904 11.2842 22.904 16.2765 25.9904 19.3629V19.3737Z" fill="#E8DBCF"/>
<path d="M42.6459 15.7134C42.6459 11.3708 40.8916 7.43975 38.0435 4.60247C35.1953 1.75435 31.2643 0 26.9326 0C26.9326 8.68513 33.9716 15.7134 42.6459 15.7134Z" fill="#E8DBCF"/>
<path d="M44.1837 15.7134C46.3604 15.7134 48.3422 14.8254 49.7716 13.3959C51.2011 11.9664 52.0891 9.99548 52.0891 7.80795C47.7249 7.80795 44.1945 11.3383 44.1945 15.7025L44.1837 15.7134Z" fill="#E8DBCF"/>
<path d="M58.5434 24.9075C61.6081 21.8428 63.1459 17.8143 63.1459 13.7966C63.1459 9.77889 61.6081 5.75038 58.5434 2.68568C52.4032 8.82591 52.4032 18.7781 58.5434 24.9183V24.9075Z" fill="#E8DBCF"/>
<path d="M59.6263 25.9904C61.1641 27.5282 63.1892 28.3079 65.2143 28.3079C67.2393 28.3079 69.2536 27.539 70.8022 25.9904C67.7158 22.904 62.7235 22.904 59.6372 25.9904H59.6263Z" fill="#E8DBCF"/>
<path d="M63.2866 42.6459C67.6292 42.6459 71.5602 40.8916 74.3975 38.0435C77.2456 35.1953 79 31.2643 79 26.9326C70.3149 26.9326 63.2866 33.9716 63.2866 42.6459Z" fill="#E8DBCF"/>
<path d="M63.2866 44.1837C63.2866 46.3604 64.1746 48.3422 65.6041 49.7716C67.0336 51.2011 69.0045 52.0891 71.192 52.0891C71.192 47.7249 67.6617 44.1945 63.2975 44.1945L63.2866 44.1837Z" fill="#E8DBCF"/>
<path d="M54.1034 58.5434C57.1681 61.6081 61.1966 63.1459 65.2143 63.1459C69.2319 63.1459 73.2605 61.6081 76.3252 58.5434C70.1849 52.4032 60.2328 52.4032 54.0925 58.5434H54.1034Z" fill="#E8DBCF"/>
<path d="M53.0096 59.6263C51.4718 61.1641 50.6921 63.1892 50.6921 65.2143C50.6921 67.2393 51.461 69.2536 53.0096 70.8022C56.096 67.7158 56.096 62.7235 53.0096 59.6372V59.6263Z" fill="#E8DBCF"/>
<path d="M39.5054 32.9645C41.0432 31.4267 41.8229 29.4016 41.8229 27.3766C41.8229 25.3515 41.054 23.3372 39.5054 21.7886C36.4191 24.875 36.4191 29.8673 39.5054 32.9537V32.9645Z" fill="#E8DBCF"/>
<path d="M39.5054 57.2114C41.0432 55.6736 41.8229 53.6485 41.8229 51.6234C41.8229 49.5984 41.054 47.5841 39.5054 46.0355C36.4191 49.1219 36.4191 54.1142 39.5054 57.2006V57.2114Z" fill="#E8DBCF"/>
<path d="M46.0463 39.5054C47.5841 41.0432 49.6092 41.8229 51.6343 41.8229C53.6594 41.8229 55.6736 41.054 57.2222 39.5054C54.1358 36.4191 49.1435 36.4191 46.0572 39.5054H46.0463Z" fill="#E8DBCF"/>
<path d="M21.7995 39.5054C23.3372 41.0432 25.3623 41.8229 27.3874 41.8229C29.4125 41.8229 31.4267 41.054 32.9753 39.5054C29.889 36.4191 24.8966 36.4191 21.8103 39.5054H21.7995Z" fill="#E8DBCF"/>
<path d="M44.1295 34.8813C46.3062 34.8813 48.288 33.9933 49.7175 32.5638C51.1469 31.1343 52.035 29.1634 52.035 26.9759C47.6707 26.9759 44.1404 30.5062 44.1404 34.8705L44.1295 34.8813Z" fill="#E8DBCF"/>
<path d="M26.9867 52.0241C29.1634 52.0241 31.1452 51.1361 32.5746 49.7066C34.0041 48.2772 34.8921 46.3062 34.8921 44.1187C30.5279 44.1187 26.9975 47.6491 26.9975 52.0133L26.9867 52.0241Z" fill="#E8DBCF"/>
<path d="M44.1295 44.1295C44.1295 46.3062 45.0175 48.288 46.447 49.7175C47.8765 51.1469 49.8474 52.035 52.035 52.035C52.035 47.6707 48.5046 44.1404 44.1404 44.1404L44.1295 44.1295Z" fill="#E8DBCF"/>
<path d="M26.9867 26.9867C26.9867 29.1634 27.8747 31.1452 29.3042 32.5746C30.7337 34.0041 32.7046 34.8921 34.8921 34.8921C34.8921 30.5279 31.3618 26.9975 26.9975 26.9975L26.9867 26.9867Z" fill="#E8DBCF"/>
<path d="M39.5054 41.5738C40.6478 41.5738 41.5738 40.6478 41.5738 39.5054C41.5738 38.3631 40.6478 37.437 39.5054 37.437C38.3631 37.437 37.437 38.3631 37.437 39.5054C37.437 40.6478 38.3631 41.5738 39.5054 41.5738Z" fill="#E8DBCF"/>
</g>
</svg>
