<svg width="94" height="42" viewBox="0 0 94 42" fill="none" xmlns="http://www.w3.org/2000/svg">
<g id="Group 122">
<g id="Group 120">
<g id="Vector">
<path d="M39.9937 18.4956C39.2627 16.0259 38.0104 13.7336 36.3494 11.7856V8.24742C36.3494 5.52454 34.176 3.30933 31.5046 3.30933C30.6578 3.30803 29.8255 3.5335 29.091 3.96315C27.9476 1.61247 25.5604 0 22.8557 0C20.1512 0 17.7637 1.61247 16.6203 3.96315C15.8859 3.53341 15.0536 3.30794 14.2068 3.30933C11.5353 3.30933 9.36196 5.52454 9.36196 8.24742V11.7843C7.70118 13.7328 6.44889 16.0255 5.71764 18.4954C2.55323 18.5671 0 21.2132 0 24.4558C0 27.7428 2.62391 30.4172 5.84909 30.4172H6.19149C8.86626 37.3864 15.4409 42 22.8559 42C30.2708 42 36.8455 37.3864 39.5202 30.4172H39.8626C43.0878 30.4172 45.7117 27.7428 45.7117 24.4558C45.7117 21.2132 43.1585 18.5671 39.9937 18.4956ZM12.1127 8.2476C12.1127 7.07058 13.0524 6.11286 14.2072 6.11286C14.9966 6.11286 15.711 6.56047 16.0719 7.2811C16.2081 7.55328 16.4279 7.77264 16.6977 7.90576C16.9676 8.03889 17.2727 8.0785 17.5666 8.01856C17.8606 7.95861 18.1273 7.8024 18.3261 7.57371C18.5249 7.34501 18.6449 7.05636 18.6679 6.75171C18.8354 4.53782 20.675 2.80353 22.8559 2.80353C25.0368 2.80353 26.8764 4.53782 27.044 6.75171C27.0669 7.05643 27.1869 7.34515 27.3858 7.57391C27.5846 7.80267 27.8513 7.95893 28.1453 8.01888C28.4393 8.07883 28.7445 8.03919 29.0144 7.906C29.2842 7.77281 29.504 7.55337 29.6402 7.2811C30.0009 6.56047 30.7155 6.11286 31.5047 6.11286C32.6595 6.11286 33.5992 7.07058 33.5992 8.2476V12.0685C33.5992 13.2456 32.6595 14.2033 31.5047 14.2033C30.7153 14.2033 30.0009 13.7557 29.6402 13.0351C29.504 12.7628 29.2842 12.5433 29.0144 12.4101C28.7445 12.277 28.4393 12.2373 28.1453 12.2973C27.8513 12.3572 27.5846 12.5135 27.3858 12.7422C27.1869 12.971 27.0669 13.2597 27.044 13.5644C26.8764 15.7783 25.0368 17.5126 22.8559 17.5126C20.675 17.5126 18.8355 15.7783 18.6679 13.5644C18.6447 13.2599 18.5245 12.9715 18.3257 12.743C18.1268 12.5146 17.8603 12.3585 17.5664 12.2986C17.2726 12.2387 16.9677 12.2782 16.6979 12.4111C16.4281 12.544 16.2083 12.7631 16.0719 13.0351C15.7112 13.7557 14.9966 14.2033 14.2072 14.2033C13.0524 14.2033 12.1127 13.2456 12.1127 12.0685V8.2476ZM39.8626 27.6139H38.5538C38.2641 27.6139 37.9819 27.7071 37.7472 27.8803C37.5126 28.0534 37.3376 28.2977 37.2472 28.5782C35.1997 34.9294 29.4164 39.1967 22.8557 39.1967C16.2952 39.1967 10.5118 34.9294 8.46437 28.5782C8.37399 28.2976 8.19899 28.0534 7.96436 27.8802C7.72972 27.7071 7.44742 27.6139 7.15774 27.6139H5.84891C4.14039 27.6139 2.75041 26.1972 2.75041 24.4558C2.75041 22.7144 4.14039 21.2976 5.84891 21.2976H6.77275C7.08285 21.2976 7.38385 21.1908 7.6269 20.9945C7.86995 20.7982 8.04079 20.5239 8.11169 20.2162C8.53708 18.3683 9.30523 16.6178 10.3526 15.056C11.2385 16.2405 12.6363 17.0068 14.207 17.0068C15.0737 17.0068 15.9012 16.7744 16.6205 16.353C17.7639 18.7037 20.1512 20.3161 22.8559 20.3161C25.5606 20.3161 27.9478 18.7037 29.0912 16.353C29.8256 16.7827 30.6579 17.0082 31.5047 17.0068C33.0756 17.0068 34.4736 16.2403 35.3595 15.0556C36.4071 16.6174 37.1747 18.3683 37.6 20.2164C37.6709 20.5241 37.8417 20.7984 38.0848 20.9947C38.3279 21.191 38.6289 21.2978 38.939 21.2978H39.8628C41.5713 21.2978 42.9613 22.7145 42.9613 24.4559C42.9613 26.1972 41.5712 27.6139 39.8626 27.6139Z" fill="#A680DB"/>
<path d="M25.2622 28.9459C24.6261 29.6171 23.7714 29.9868 22.8559 29.9868C21.9403 29.9868 21.0857 29.6171 20.4493 28.9457C20.3239 28.8133 20.174 28.7073 20.0084 28.6339C19.8428 28.5605 19.6646 28.5211 19.484 28.5179C19.3034 28.5147 19.124 28.5478 18.956 28.6153C18.7879 28.6828 18.6346 28.7833 18.5047 28.9112C18.3748 29.0391 18.2709 29.1918 18.1988 29.3606C18.1268 29.5295 18.0882 29.7111 18.085 29.8951C18.0819 30.0792 18.1143 30.2621 18.1806 30.4333C18.2468 30.6046 18.3454 30.7609 18.4709 30.8933C19.6301 32.1165 21.1874 32.7902 22.8557 32.7902C24.524 32.7902 26.081 32.1165 27.2402 30.8933C27.4901 30.6252 27.6258 30.2675 27.618 29.8979C27.6102 29.5283 27.4595 29.1768 27.1986 28.9199C26.9377 28.6631 26.5879 28.5217 26.2252 28.5265C25.8625 28.5314 25.5164 28.6821 25.2622 28.9459Z" fill="#A680DB"/>
<path d="M17.147 25.3998C18.0377 25.3998 18.7597 24.6639 18.7597 23.7561C18.7597 22.8483 18.0377 22.1124 17.147 22.1124C16.2564 22.1124 15.5344 22.8483 15.5344 23.7561C15.5344 24.6639 16.2564 25.3998 17.147 25.3998Z" fill="#A680DB"/>
<path d="M28.5645 25.3998C29.4552 25.3998 30.1772 24.6639 30.1772 23.7561C30.1772 22.8483 29.4552 22.1124 28.5645 22.1124C27.6738 22.1124 26.9518 22.8483 26.9518 23.7561C26.9518 24.6639 27.6738 25.3998 28.5645 25.3998Z" fill="#A680DB"/>
<path d="M71.144 32.7902C72.8121 32.7902 74.3691 32.1165 75.5285 30.8935C75.7743 30.6247 75.9067 30.2682 75.8973 29.9009C75.8878 29.5335 75.7372 29.1847 75.4779 28.9294C75.2186 28.6741 74.8714 28.5327 74.5108 28.5358C74.1503 28.5388 73.8054 28.686 73.5503 28.9457C72.914 29.6171 72.0593 29.9868 71.1438 29.9868C70.2282 29.9868 69.3736 29.6171 68.7374 28.9457C68.612 28.8133 68.4621 28.7073 68.2965 28.6339C68.1309 28.5605 67.9527 28.5211 67.7721 28.5179C67.5915 28.5147 67.4121 28.5478 67.2441 28.6153C67.076 28.6828 66.9227 28.7833 66.7928 28.9112C66.6629 29.0391 66.5589 29.1918 66.4869 29.3606C66.4149 29.5295 66.3762 29.7111 66.3731 29.8951C66.37 30.0792 66.4024 30.2621 66.4686 30.4333C66.5349 30.6046 66.6335 30.7609 66.759 30.8933C67.9182 32.1165 69.4756 32.7902 71.144 32.7902Z" fill="#A680DB"/>
<path d="M65.4351 25.3998C66.3258 25.3998 67.0478 24.6639 67.0478 23.7561C67.0478 22.8483 66.3258 22.1124 65.4351 22.1124C64.5445 22.1124 63.8224 22.8483 63.8224 23.7561C63.8224 24.6639 64.5445 25.3998 65.4351 25.3998Z" fill="#A680DB"/>
<path d="M76.8526 25.3998C77.7433 25.3998 78.4653 24.6639 78.4653 23.7561C78.4653 22.8483 77.7433 22.1124 76.8526 22.1124C75.9619 22.1124 75.2399 22.8483 75.2399 23.7561C75.2399 24.6639 75.9619 25.3998 76.8526 25.3998Z" fill="#A680DB"/>
<path d="M88.2816 18.4956C87.7577 16.7252 86.9632 15.0476 85.9461 13.5201C86.2522 12.4454 86.3818 11.1982 86.3146 9.80861C86.0598 4.52827 83.7063 2.95473 81.7769 2.56457C79.0385 2.01105 76.7312 3.88007 75.0297 5.56533C73.9869 4.64429 72.6287 4.08516 71.144 4.08516C69.659 4.08516 68.3008 4.64429 67.2582 5.56533C65.5567 3.88007 63.2495 2.01124 60.511 2.56457C58.5816 2.95473 56.2281 4.52827 55.9731 9.80861C55.9061 11.1969 56.0353 12.4428 56.3408 13.5169C55.3228 15.0446 54.5304 16.7244 54.0063 18.4954C50.8415 18.5669 48.2883 21.213 48.2883 24.4556C48.2883 27.7426 50.9122 30.4171 54.1374 30.4171H54.4798C57.1545 37.3862 63.7294 41.9998 71.1441 41.9998C73.7346 41.9998 76.2339 41.4474 78.5727 40.358C78.9028 40.2024 79.159 39.9198 79.2852 39.5722C79.4114 39.2245 79.3974 38.8401 79.2462 38.503C79.095 38.1658 78.819 37.9034 78.4785 37.7732C78.138 37.643 77.7607 37.6556 77.4293 37.8082C75.452 38.7292 73.3373 39.1963 71.1441 39.1963C64.5834 39.1963 58.8001 34.9291 56.7526 28.5778C56.6623 28.2973 56.4873 28.053 56.2526 27.8799C56.018 27.7067 55.7357 27.6135 55.446 27.6135H54.1372C52.4287 27.6135 51.0387 26.1968 51.0387 24.4554C51.0387 22.714 52.4287 21.2973 54.1372 21.2973H55.061C55.3711 21.2972 55.6721 21.1904 55.9152 20.9941C56.1582 20.7978 56.3291 20.5235 56.4 20.2158C56.7148 18.8478 57.2197 17.5341 57.8843 16.3096C58.5878 17.0263 59.4706 17.5094 60.5112 17.7198C60.8464 17.7875 61.1747 17.8191 61.4967 17.8191C63.8054 17.8191 65.7647 16.1982 67.258 14.719C68.3008 15.64 69.659 16.1992 71.144 16.1992C72.6289 16.1992 73.9871 15.6399 75.0299 14.7188C76.5232 16.198 78.4822 17.8189 80.7914 17.8189C81.1222 17.8188 81.4523 17.7855 81.7767 17.7198C82.8168 17.5094 83.6991 17.0266 84.4027 16.3105C85.0673 17.5351 85.5733 18.848 85.8881 20.2158C85.959 20.5236 86.1298 20.7978 86.3729 20.9941C86.6159 21.1904 86.917 21.2973 87.2271 21.2973H88.1509C89.8594 21.2973 91.2494 22.714 91.2494 24.4554C91.2494 26.1968 89.8594 27.6135 88.1509 27.6135H86.8421C86.5524 27.6135 86.2701 27.7068 86.0355 27.8799C85.8009 28.0531 85.6259 28.2973 85.5354 28.5778C84.8426 30.7275 83.6637 32.7361 82.1267 34.3866C81.8787 34.6568 81.7455 35.016 81.7563 35.3858C81.7671 35.7557 81.9209 36.1062 82.1842 36.3609C82.4475 36.6156 82.7989 36.7539 83.1618 36.7456C83.5248 36.7373 83.8698 36.5831 84.1216 36.3166C85.709 34.6084 86.9602 32.6056 87.8072 30.4169H88.1509C91.3761 30.4169 94 27.7425 94 24.4554C93.9996 21.2132 91.4464 18.5671 88.2816 18.4956ZM65.6358 12.4127C64.295 13.7766 62.6139 15.2873 61.046 14.9701C58.6855 14.493 58.6688 11.0045 58.7198 9.94671C58.8544 7.15797 59.6371 5.59958 61.0458 5.31458C62.6142 4.99759 64.295 6.50826 65.6358 7.87204C65.3564 8.57376 65.201 9.33967 65.201 10.1424C65.201 10.9452 65.3564 11.7109 65.6358 12.4127ZM71.1438 13.396C69.3835 13.396 67.9516 11.9364 67.9516 10.1423C67.9516 8.34809 69.3837 6.8885 71.1438 6.8885C72.9039 6.8885 74.3361 8.34809 74.3361 10.1423C74.3361 11.9364 72.9039 13.396 71.1438 13.396ZM81.2414 14.9701C79.6746 15.2869 77.9927 13.7764 76.6517 12.4127C76.9312 11.7109 77.0865 10.945 77.0865 10.1424C77.0865 9.33986 76.9312 8.57376 76.6517 7.87204C77.9925 6.50807 79.6731 4.99703 81.2419 5.31458C82.6506 5.59958 83.4331 7.15797 83.5679 9.94671C83.6185 11.0044 83.6018 14.493 81.2414 14.9701Z" fill="#A680DB"/>
</g>
</g>
</g>
</svg>
